# MagicaVoxel @ Ephtracy

# group
g dude

# material
mtllib dude.mtl
usemtl palette

# normals
vn -1 0 0
vn 1 0 0
vn 0 0 1
vn 0 0 -1
vn 0 -1 0
vn 0 1 0

# texcoords
vt 0.205078 0.5
vt 0.845703 0.5
vt 0.873047 0.5
vt 0.947266 0.5
vt 0.958984 0.5
vt 0.974609 0.5

# verts
v -4 3 1
v -4 3 -0
v -4 5 1
v -4 5 -0
v -3 5 1
v -3 5 -0
v -3 6 1
v -3 6 -0
v -2 0 1
v -2 0 -1
v -2 3 1
v -2 3 -0
v -2 3 -1
v -2 5 1
v -2 5 -0
v -2 6 -0
v -2 6 -1
v -2 7 -0
v -2 7 -2
v -2 8 1
v -2 8 -0
v -2 8 -1
v -2 8 -2
v -2 9 -0
v -2 9 -1
v -2 9 -2
v -2 10 1
v -2 10 -2
v 0 0 1
v 0 0 -1
v 0 2 1
v 0 2 -1
v 2 3 1
v 2 3 -0
v 2 5 1
v 2 5 -0
v -3 3 1
v -3 3 -0
v -3 5 1
v -3 5 -0
v -1 0 1
v -1 0 -1
v -1 2 1
v -1 2 -1
v 1 0 1
v 1 0 -1
v 1 3 1
v 1 3 -0
v 1 3 -1
v 1 5 1
v 1 5 -0
v 1 6 -0
v 1 6 -1
v 1 7 -0
v 1 7 -2
v 1 8 1
v 1 8 -0
v 1 8 -1
v 1 8 -2
v 1 9 -0
v 1 9 -1
v 1 9 -2
v 1 10 1
v 1 10 -2
v 2 5 1
v 2 5 -0
v 2 6 1
v 2 6 -0
v 3 3 1
v 3 3 -0
v 3 5 1
v 3 5 -0
v -4 3 1
v -4 5 1
v -3 3 1
v -3 5 1
v -3 6 1
v -2 0 1
v -2 3 1
v -2 5 1
v -2 8 1
v -2 10 1
v -1 0 1
v -1 2 1
v 0 0 1
v 0 2 1
v 1 0 1
v 1 3 1
v 1 5 1
v 1 8 1
v 1 10 1
v 2 3 1
v 2 5 1
v 2 6 1
v 3 3 1
v 3 5 1
v -2 7 -0
v -2 8 -0
v 1 7 -0
v 1 8 -0
v -4 3 -0
v -4 5 -0
v -3 3 -0
v -3 5 -0
v -3 6 -0
v -2 5 -0
v -2 6 -0
v 1 5 -0
v 1 6 -0
v 2 3 -0
v 2 5 -0
v 2 6 -0
v 3 3 -0
v 3 5 -0
v -2 0 -1
v -2 3 -1
v -2 6 -1
v -1 0 -1
v -1 2 -1
v -1 4 -1
v -1 6 -1
v 0 0 -1
v 0 2 -1
v 0 4 -1
v 0 6 -1
v 1 0 -1
v 1 3 -1
v 1 6 -1
v -2 7 -2
v -2 8 -2
v -2 9 -2
v -2 10 -2
v -1 8 -2
v -1 9 -2
v 0 8 -2
v 0 9 -2
v 1 7 -2
v 1 8 -2
v 1 9 -2
v 1 10 -2
v -2 0 1
v -1 0 1
v 0 0 1
v 1 0 1
v -2 0 -1
v -1 0 -1
v 0 0 -1
v 1 0 -1
v -1 2 1
v 0 2 1
v -1 2 -1
v 0 2 -1
v -4 3 1
v -3 3 1
v 2 3 1
v 3 3 1
v -4 3 -0
v -3 3 -0
v 2 3 -0
v 3 3 -0
v -3 5 1
v -2 5 1
v 1 5 1
v 2 5 1
v -3 5 -0
v -2 5 -0
v 1 5 -0
v 2 5 -0
v -2 7 -0
v 1 7 -0
v -2 7 -2
v 1 7 -2
v -2 8 1
v 1 8 1
v -2 8 -0
v 1 8 -0
v -4 5 1
v -3 5 1
v 2 5 1
v 3 5 1
v -4 5 -0
v -3 5 -0
v 2 5 -0
v 3 5 -0
v -3 6 1
v 2 6 1
v -3 6 -0
v -2 6 -0
v -1 6 -0
v 0 6 -0
v 1 6 -0
v 2 6 -0
v -2 6 -1
v -1 6 -1
v 0 6 -1
v 1 6 -1
v -2 10 1
v 1 10 1
v -2 10 -2
v 1 10 -2

# faces
f 3/3/1 2/3/1 1/3/1
f 4/3/1 2/3/1 3/3/1
f 7/3/1 6/3/1 5/3/1
f 8/3/1 6/3/1 7/3/1
f 11/4/1 10/4/1 9/4/1
f 12/4/1 10/4/1 11/4/1
f 13/4/1 10/4/1 12/4/1
f 14/3/1 12/3/1 11/3/1
f 15/5/1 13/5/1 12/5/1
f 15/3/1 12/3/1 14/3/1
f 16/5/1 13/5/1 15/5/1
f 17/5/1 13/5/1 16/5/1
f 21/1/1 19/1/1 18/1/1
f 22/1/1 19/1/1 21/1/1
f 23/1/1 19/1/1 22/1/1
f 24/6/1 21/6/1 20/6/1
f 24/1/1 22/1/1 21/1/1
f 25/5/1 23/5/1 22/5/1
f 25/1/1 22/1/1 24/1/1
f 26/5/1 23/5/1 25/5/1
f 27/6/1 24/6/1 20/6/1
f 27/6/1 25/6/1 24/6/1
f 27/6/1 26/6/1 25/6/1
f 28/6/1 26/6/1 27/6/1
f 31/4/1 30/4/1 29/4/1
f 32/4/1 30/4/1 31/4/1
f 35/3/1 34/3/1 33/3/1
f 36/3/1 34/3/1 35/3/1
f 37/3/2 38/3/2 39/3/2
f 39/3/2 38/3/2 40/3/2
f 41/4/2 42/4/2 43/4/2
f 43/4/2 42/4/2 44/4/2
f 45/4/2 46/4/2 47/4/2
f 47/4/2 46/4/2 48/4/2
f 48/4/2 46/4/2 49/4/2
f 47/3/2 48/3/2 50/3/2
f 48/5/2 49/5/2 51/5/2
f 50/3/2 48/3/2 51/3/2
f 51/5/2 49/5/2 52/5/2
f 52/5/2 49/5/2 53/5/2
f 54/1/2 55/1/2 57/1/2
f 57/1/2 55/1/2 58/1/2
f 58/1/2 55/1/2 59/1/2
f 56/6/2 57/6/2 60/6/2
f 57/1/2 58/1/2 60/1/2
f 58/5/2 59/5/2 61/5/2
f 60/1/2 58/1/2 61/1/2
f 61/5/2 59/5/2 62/5/2
f 56/6/2 60/6/2 63/6/2
f 60/6/2 61/6/2 63/6/2
f 61/6/2 62/6/2 63/6/2
f 63/6/2 62/6/2 64/6/2
f 65/3/2 66/3/2 67/3/2
f 67/3/2 66/3/2 68/3/2
f 69/3/2 70/3/2 71/3/2
f 71/3/2 70/3/2 72/3/2
f 75/3/3 74/3/3 73/3/3
f 76/3/3 74/3/3 75/3/3
f 80/3/3 77/3/3 76/3/3
f 83/4/3 79/4/3 78/4/3
f 84/4/3 79/4/3 83/4/3
f 86/4/3 79/4/3 84/4/3
f 87/4/3 86/4/3 85/4/3
f 88/3/3 80/3/3 79/3/3
f 88/4/3 86/4/3 87/4/3
f 88/4/3 79/4/3 86/4/3
f 89/3/3 77/3/3 80/3/3
f 89/3/3 80/3/3 88/3/3
f 90/6/3 82/6/3 81/6/3
f 91/6/3 82/6/3 90/6/3
f 93/3/3 77/3/3 89/3/3
f 94/3/3 77/3/3 93/3/3
f 95/3/3 93/3/3 92/3/3
f 96/3/3 93/3/3 95/3/3
f 99/1/3 98/1/3 97/1/3
f 100/1/3 98/1/3 99/1/3
f 101/3/4 102/3/4 103/3/4
f 103/3/4 102/3/4 104/3/4
f 104/3/4 105/3/4 106/3/4
f 106/3/4 105/3/4 107/3/4
f 108/3/4 109/3/4 111/3/4
f 111/3/4 109/3/4 112/3/4
f 110/3/4 111/3/4 113/3/4
f 113/3/4 111/3/4 114/3/4
f 115/4/4 116/4/4 118/4/4
f 118/4/4 116/4/4 119/4/4
f 116/5/4 117/5/4 120/5/4
f 120/5/4 117/5/4 121/5/4
f 119/4/4 116/4/4 123/4/4
f 120/2/4 121/2/4 124/2/4
f 116/5/4 120/5/4 124/5/4
f 124/2/4 121/2/4 125/2/4
f 122/4/4 123/4/4 126/4/4
f 123/4/4 116/4/4 127/4/4
f 126/4/4 123/4/4 127/4/4
f 116/5/4 124/5/4 127/5/4
f 124/5/4 125/5/4 127/5/4
f 127/5/4 125/5/4 128/5/4
f 129/1/4 130/1/4 133/1/4
f 130/5/4 131/5/4 133/5/4
f 131/6/4 132/6/4 134/6/4
f 133/5/4 131/5/4 134/5/4
f 129/1/4 133/1/4 135/1/4
f 133/1/4 134/1/4 135/1/4
f 134/6/4 132/6/4 136/6/4
f 135/1/4 134/1/4 136/1/4
f 129/1/4 135/1/4 137/1/4
f 135/5/4 136/5/4 138/5/4
f 137/1/4 135/1/4 138/1/4
f 136/6/4 132/6/4 139/6/4
f 138/5/4 136/5/4 139/5/4
f 139/6/4 132/6/4 140/6/4
f 145/4/5 142/4/5 141/4/5
f 146/4/5 142/4/5 145/4/5
f 147/4/5 144/4/5 143/4/5
f 148/4/5 144/4/5 147/4/5
f 151/4/5 150/4/5 149/4/5
f 152/4/5 150/4/5 151/4/5
f 157/3/5 154/3/5 153/3/5
f 158/3/5 154/3/5 157/3/5
f 159/3/5 156/3/5 155/3/5
f 160/3/5 156/3/5 159/3/5
f 165/3/5 162/3/5 161/3/5
f 166/3/5 162/3/5 165/3/5
f 167/3/5 164/3/5 163/3/5
f 168/3/5 164/3/5 167/3/5
f 171/1/5 170/1/5 169/1/5
f 172/1/5 170/1/5 171/1/5
f 175/6/5 174/6/5 173/6/5
f 176/6/5 174/6/5 175/6/5
f 177/3/6 178/3/6 181/3/6
f 181/3/6 178/3/6 182/3/6
f 179/3/6 180/3/6 183/3/6
f 183/3/6 180/3/6 184/3/6
f 185/3/6 186/3/6 187/3/6
f 187/3/6 186/3/6 188/3/6
f 188/3/6 186/3/6 189/3/6
f 189/3/6 186/3/6 190/3/6
f 190/3/6 186/3/6 191/3/6
f 191/3/6 186/3/6 192/3/6
f 188/5/6 189/5/6 193/5/6
f 189/2/6 190/2/6 194/2/6
f 193/5/6 189/5/6 194/5/6
f 190/5/6 191/5/6 195/5/6
f 194/2/6 190/2/6 195/2/6
f 195/5/6 191/5/6 196/5/6
f 197/6/6 198/6/6 199/6/6
f 199/6/6 198/6/6 200/6/6
