# MagicaVoxel @ Ephtracy

# group
g house_swords

# material
mtllib house_swords.mtl
usemtl palette

# normals
vn -1 0 0
vn 1 0 0
vn 0 0 1
vn 0 0 -1
vn 0 -1 0
vn 0 1 0

# texcoords
vt 0.537109 0.5
vt 0.873047 0.5
vt 0.974609 0.5
vt 0.994141 0.5

# verts
v -5.5 1 0.5
v -5.5 1 -0.5
v -5.5 2 0.5
v -5.5 2 -0.5
v -5.5 6 1.5
v -5.5 6 0.5
v -5.5 10 1.5
v -5.5 10 0.5
v -5.5 11 -0.5
v -5.5 11 -1.5
v -5.5 12 -0.5
v -5.5 12 -1.5
v -4.5 2 0.5
v -4.5 2 -0.5
v -4.5 3 0.5
v -4.5 3 -0.5
v -4.5 4 1.5
v -4.5 4 0.5
v -4.5 6 1.5
v -4.5 6 0.5
v -4.5 7 -0.5
v -4.5 7 -1.5
v -4.5 8 -0.5
v -4.5 8 -1.5
v -4.5 10 1.5
v -4.5 10 0.5
v -4.5 10 -0.5
v -4.5 10 -1.5
v -4.5 11 1.5
v -4.5 11 0.5
v -4.5 11 -0.5
v -4.5 11 -1.5
v -3.5 3 1.5
v -3.5 3 0.5
v -3.5 3 -0.5
v -3.5 4 1.5
v -3.5 4 0.5
v -3.5 4 -0.5
v -3.5 8 -0.5
v -3.5 8 -1.5
v -3.5 9 -0.5
v -3.5 9 -1.5
v -3.5 10 -0.5
v -3.5 10 -1.5
v -2.5 2 1.5
v -2.5 2 0.5
v -2.5 3 1.5
v -2.5 3 0.5
v -2.5 4 0.5
v -2.5 4 -0.5
v -2.5 5 0.5
v -2.5 5 -0.5
v -2.5 11 1.5
v -2.5 11 0.5
v -2.5 12 1.5
v -2.5 12 0.5
v -1.5 1 1.5
v -1.5 1 0.5
v -1.5 2 1.5
v -1.5 2 0.5
v -1.5 5 0.5
v -1.5 5 -0.5
v -1.5 6 0.5
v -1.5 6 -0.5
v -1.5 7 -0.5
v -1.5 7 -1.5
v -1.5 8 -0.5
v -1.5 8 -1.5
v -1.5 10 -0.5
v -1.5 10 -1.5
v -1.5 11 -0.5
v -1.5 11 -1.5
v -0.5 0 1.5
v -0.5 0 0.5
v -0.5 1 1.5
v -0.5 1 0.5
v -0.5 6 0.5
v -0.5 6 -0.5
v -0.5 6 -1.5
v -0.5 7 0.5
v -0.5 7 -0.5
v -0.5 7 -1.5
v 0.5 5 -0.5
v 0.5 5 -1.5
v 0.5 6 -0.5
v 0.5 6 -1.5
v 0.5 7 0.5
v 0.5 7 -0.5
v 0.5 8 0.5
v 0.5 8 -0.5
v 0.5 9 0.5
v 0.5 9 -0.5
v 0.5 11 0.5
v 0.5 11 -0.5
v 1.5 4 -0.5
v 1.5 4 -1.5
v 1.5 5 -0.5
v 1.5 5 -1.5
v 1.5 8 0.5
v 1.5 8 -0.5
v 1.5 9 0.5
v 1.5 9 -0.5
v 2.5 3 -0.5
v 2.5 3 -1.5
v 2.5 4 -0.5
v 2.5 4 -1.5
v 2.5 7 0.5
v 2.5 7 -0.5
v 2.5 8 0.5
v 2.5 8 -0.5
v 3.5 2 -0.5
v 3.5 2 -1.5
v 3.5 3 -0.5
v 3.5 3 -1.5
v 3.5 10 0.5
v 3.5 10 -0.5
v 3.5 11 0.5
v 3.5 11 -0.5
v 4.5 1 -0.5
v 4.5 1 -1.5
v 4.5 2 -0.5
v 4.5 2 -1.5
v 4.5 11 0.5
v 4.5 11 -0.5
v 4.5 12 0.5
v 4.5 12 -0.5
v -4.5 1 0.5
v -4.5 1 -0.5
v -4.5 2 0.5
v -4.5 2 -0.5
v -4.5 11 -0.5
v -4.5 11 -1.5
v -4.5 12 -0.5
v -4.5 12 -1.5
v -3.5 2 0.5
v -3.5 2 -0.5
v -3.5 3 0.5
v -3.5 3 -0.5
v -3.5 10 -0.5
v -3.5 10 -1.5
v -3.5 11 -0.5
v -3.5 11 -1.5
v -2.5 3 0.5
v -2.5 3 -0.5
v -2.5 4 0.5
v -2.5 4 -0.5
v -2.5 7 -0.5
v -2.5 7 -1.5
v -2.5 8 -0.5
v -2.5 8 -1.5
v -1.5 4 0.5
v -1.5 4 -0.5
v -1.5 5 0.5
v -1.5 5 -0.5
v -1.5 8 -0.5
v -1.5 8 -1.5
v -1.5 9 -0.5
v -1.5 9 -1.5
v -0.5 5 0.5
v -0.5 5 -0.5
v -0.5 6 0.5
v -0.5 6 -0.5
v -0.5 7 -0.5
v -0.5 7 -1.5
v -0.5 8 -0.5
v -0.5 8 -1.5
v -0.5 9 -0.5
v -0.5 9 -1.5
v -0.5 11 -0.5
v -0.5 11 -1.5
v 0.5 0 1.5
v 0.5 0 0.5
v 0.5 1 1.5
v 0.5 1 0.5
v 0.5 6 0.5
v 0.5 6 -0.5
v 0.5 6 -1.5
v 0.5 7 0.5
v 0.5 7 -0.5
v 0.5 7 -1.5
v 1.5 1 1.5
v 1.5 1 0.5
v 1.5 2 1.5
v 1.5 2 0.5
v 1.5 5 -0.5
v 1.5 5 -1.5
v 1.5 6 -0.5
v 1.5 6 -1.5
v 1.5 7 0.5
v 1.5 7 -0.5
v 1.5 8 0.5
v 1.5 8 -0.5
v 1.5 10 0.5
v 1.5 10 -0.5
v 1.5 11 0.5
v 1.5 11 -0.5
v 2.5 2 1.5
v 2.5 2 0.5
v 2.5 3 1.5
v 2.5 3 0.5
v 2.5 4 -0.5
v 2.5 4 -1.5
v 2.5 5 -0.5
v 2.5 5 -1.5
v 2.5 11 1.5
v 2.5 11 0.5
v 2.5 12 1.5
v 2.5 12 0.5
v 3.5 3 1.5
v 3.5 3 0.5
v 3.5 3 -0.5
v 3.5 3 -1.5
v 3.5 4 1.5
v 3.5 4 0.5
v 3.5 4 -0.5
v 3.5 4 -1.5
v 3.5 8 0.5
v 3.5 8 -0.5
v 3.5 9 0.5
v 3.5 9 -0.5
v 3.5 10 0.5
v 3.5 10 -0.5
v 4.5 2 -0.5
v 4.5 2 -1.5
v 4.5 3 -0.5
v 4.5 3 -1.5
v 4.5 4 1.5
v 4.5 4 0.5
v 4.5 6 1.5
v 4.5 6 0.5
v 4.5 7 0.5
v 4.5 7 -0.5
v 4.5 8 0.5
v 4.5 8 -0.5
v 4.5 10 1.5
v 4.5 10 0.5
v 4.5 10 -0.5
v 4.5 11 1.5
v 4.5 11 0.5
v 4.5 11 -0.5
v 5.5 1 -0.5
v 5.5 1 -1.5
v 5.5 2 -0.5
v 5.5 2 -1.5
v 5.5 6 1.5
v 5.5 6 0.5
v 5.5 10 1.5
v 5.5 10 0.5
v 5.5 11 0.5
v 5.5 11 -0.5
v 5.5 12 0.5
v 5.5 12 -0.5
v -5.5 6 1.5
v -5.5 10 1.5
v -4.5 4 1.5
v -4.5 6 1.5
v -4.5 10 1.5
v -4.5 11 1.5
v -3.5 3 1.5
v -3.5 4 1.5
v -2.5 2 1.5
v -2.5 3 1.5
v -2.5 11 1.5
v -2.5 12 1.5
v -1.5 1 1.5
v -1.5 2 1.5
v -0.5 0 1.5
v -0.5 1 1.5
v 0.5 0 1.5
v 0.5 1 1.5
v 1.5 1 1.5
v 1.5 2 1.5
v 2.5 2 1.5
v 2.5 3 1.5
v 2.5 11 1.5
v 2.5 12 1.5
v 3.5 3 1.5
v 3.5 4 1.5
v 4.5 4 1.5
v 4.5 6 1.5
v 4.5 10 1.5
v 4.5 11 1.5
v 5.5 6 1.5
v 5.5 10 1.5
v -5.5 1 0.5
v -5.5 2 0.5
v -4.5 1 0.5
v -4.5 2 0.5
v -4.5 3 0.5
v -3.5 2 0.5
v -3.5 3 0.5
v 4.5 11 0.5
v 4.5 12 0.5
v 5.5 11 0.5
v 5.5 12 0.5
v -5.5 11 -0.5
v -5.5 12 -0.5
v -4.5 7 -0.5
v -4.5 8 -0.5
v -4.5 10 -0.5
v -4.5 11 -0.5
v -4.5 12 -0.5
v -3.5 8 -0.5
v -3.5 9 -0.5
v -3.5 10 -0.5
v -3.5 11 -0.5
v -2.5 7 -0.5
v -2.5 8 -0.5
v -2.5 9 -0.5
v -2.5 10 -0.5
v -1.5 7 -0.5
v -1.5 8 -0.5
v -1.5 9 -0.5
v -1.5 10 -0.5
v -1.5 11 -0.5
v -0.5 7 -0.5
v -0.5 8 -0.5
v -0.5 9 -0.5
v -0.5 11 -0.5
v 0.5 5 -0.5
v 0.5 6 -0.5
v 1.5 4 -0.5
v 1.5 5 -0.5
v 1.5 6 -0.5
v 2.5 3 -0.5
v 2.5 4 -0.5
v 2.5 5 -0.5
v 3.5 2 -0.5
v 3.5 3 -0.5
v 3.5 4 -0.5
v 4.5 1 -0.5
v 4.5 2 -0.5
v 4.5 3 -0.5
v 5.5 1 -0.5
v 5.5 2 -0.5
v -5.5 6 0.5
v -5.5 10 0.5
v -4.5 4 0.5
v -4.5 6 0.5
v -4.5 10 0.5
v -4.5 11 0.5
v -3.5 4 0.5
v -2.5 2 0.5
v -2.5 3 0.5
v -2.5 4 0.5
v -2.5 5 0.5
v -2.5 11 0.5
v -2.5 12 0.5
v -1.5 1 0.5
v -1.5 2 0.5
v -1.5 4 0.5
v -1.5 5 0.5
v -1.5 6 0.5
v -0.5 0 0.5
v -0.5 1 0.5
v -0.5 5 0.5
v -0.5 6 0.5
v -0.5 7 0.5
v 0.5 0 0.5
v 0.5 1 0.5
v 0.5 6 0.5
v 0.5 7 0.5
v 0.5 8 0.5
v 0.5 9 0.5
v 0.5 11 0.5
v 1.5 1 0.5
v 1.5 2 0.5
v 1.5 7 0.5
v 1.5 8 0.5
v 1.5 9 0.5
v 1.5 10 0.5
v 1.5 11 0.5
v 2.5 2 0.5
v 2.5 3 0.5
v 2.5 7 0.5
v 2.5 8 0.5
v 2.5 10 0.5
v 2.5 11 0.5
v 2.5 12 0.5
v 3.5 3 0.5
v 3.5 4 0.5
v 3.5 8 0.5
v 3.5 9 0.5
v 3.5 10 0.5
v 3.5 11 0.5
v 4.5 4 0.5
v 4.5 6 0.5
v 4.5 7 0.5
v 4.5 8 0.5
v 4.5 10 0.5
v 5.5 6 0.5
v 5.5 10 0.5
v -5.5 1 -0.5
v -5.5 2 -0.5
v -4.5 1 -0.5
v -4.5 2 -0.5
v -4.5 3 -0.5
v -3.5 2 -0.5
v -3.5 3 -0.5
v -3.5 4 -0.5
v -2.5 3 -0.5
v -2.5 4 -0.5
v -2.5 5 -0.5
v -1.5 4 -0.5
v -1.5 5 -0.5
v -1.5 6 -0.5
v -0.5 5 -0.5
v -0.5 6 -0.5
v 0.5 7 -0.5
v 0.5 8 -0.5
v 0.5 9 -0.5
v 0.5 11 -0.5
v 1.5 7 -0.5
v 1.5 8 -0.5
v 1.5 9 -0.5
v 1.5 10 -0.5
v 1.5 11 -0.5
v 2.5 7 -0.5
v 2.5 8 -0.5
v 2.5 9 -0.5
v 2.5 10 -0.5
v 3.5 8 -0.5
v 3.5 9 -0.5
v 3.5 10 -0.5
v 3.5 11 -0.5
v 4.5 7 -0.5
v 4.5 8 -0.5
v 4.5 10 -0.5
v 4.5 11 -0.5
v 4.5 12 -0.5
v 5.5 11 -0.5
v 5.5 12 -0.5
v -5.5 11 -1.5
v -5.5 12 -1.5
v -4.5 7 -1.5
v -4.5 8 -1.5
v -4.5 10 -1.5
v -4.5 11 -1.5
v -4.5 12 -1.5
v -3.5 8 -1.5
v -3.5 9 -1.5
v -3.5 10 -1.5
v -3.5 11 -1.5
v -2.5 7 -1.5
v -2.5 8 -1.5
v -2.5 9 -1.5
v -2.5 10 -1.5
v -1.5 7 -1.5
v -1.5 8 -1.5
v -1.5 9 -1.5
v -1.5 10 -1.5
v -1.5 11 -1.5
v -0.5 6 -1.5
v -0.5 7 -1.5
v -0.5 8 -1.5
v -0.5 9 -1.5
v -0.5 11 -1.5
v 0.5 5 -1.5
v 0.5 6 -1.5
v 0.5 7 -1.5
v 1.5 4 -1.5
v 1.5 5 -1.5
v 1.5 6 -1.5
v 2.5 3 -1.5
v 2.5 4 -1.5
v 2.5 5 -1.5
v 3.5 2 -1.5
v 3.5 3 -1.5
v 3.5 4 -1.5
v 4.5 1 -1.5
v 4.5 2 -1.5
v 4.5 3 -1.5
v 5.5 1 -1.5
v 5.5 2 -1.5
v -0.5 0 1.5
v 0.5 0 1.5
v -0.5 0 0.5
v 0.5 0 0.5
v -1.5 1 1.5
v -0.5 1 1.5
v 0.5 1 1.5
v 1.5 1 1.5
v -5.5 1 0.5
v -4.5 1 0.5
v -1.5 1 0.5
v -0.5 1 0.5
v 0.5 1 0.5
v 1.5 1 0.5
v -5.5 1 -0.5
v -4.5 1 -0.5
v 4.5 1 -0.5
v 5.5 1 -0.5
v 4.5 1 -1.5
v 5.5 1 -1.5
v -2.5 2 1.5
v -1.5 2 1.5
v 1.5 2 1.5
v 2.5 2 1.5
v -4.5 2 0.5
v -3.5 2 0.5
v -2.5 2 0.5
v -1.5 2 0.5
v 1.5 2 0.5
v 2.5 2 0.5
v -4.5 2 -0.5
v -3.5 2 -0.5
v 3.5 2 -0.5
v 4.5 2 -0.5
v 3.5 2 -1.5
v 4.5 2 -1.5
v -3.5 3 1.5
v -2.5 3 1.5
v 2.5 3 1.5
v 3.5 3 1.5
v -3.5 3 0.5
v -2.5 3 0.5
v 2.5 3 0.5
v 3.5 3 0.5
v -3.5 3 -0.5
v -2.5 3 -0.5
v 2.5 3 -0.5
v 3.5 3 -0.5
v 2.5 3 -1.5
v 3.5 3 -1.5
v -4.5 4 1.5
v -3.5 4 1.5
v 3.5 4 1.5
v 4.5 4 1.5
v -4.5 4 0.5
v -3.5 4 0.5
v -2.5 4 0.5
v -1.5 4 0.5
v 3.5 4 0.5
v 4.5 4 0.5
v -2.5 4 -0.5
v -1.5 4 -0.5
v 1.5 4 -0.5
v 2.5 4 -0.5
v 1.5 4 -1.5
v 2.5 4 -1.5
v -1.5 5 0.5
v -0.5 5 0.5
v -1.5 5 -0.5
v -0.5 5 -0.5
v 0.5 5 -0.5
v 1.5 5 -0.5
v 0.5 5 -1.5
v 1.5 5 -1.5
v -5.5 6 1.5
v -4.5 6 1.5
v 4.5 6 1.5
v 5.5 6 1.5
v -5.5 6 0.5
v -4.5 6 0.5
v -0.5 6 0.5
v 0.5 6 0.5
v 4.5 6 0.5
v 5.5 6 0.5
v -0.5 6 -0.5
v 0.5 6 -0.5
v -0.5 6 -1.5
v 0.5 6 -1.5
v 0.5 7 0.5
v 1.5 7 0.5
v 2.5 7 0.5
v 4.5 7 0.5
v -4.5 7 -0.5
v -2.5 7 -0.5
v -1.5 7 -0.5
v -0.5 7 -0.5
v 0.5 7 -0.5
v 1.5 7 -0.5
v 2.5 7 -0.5
v 4.5 7 -0.5
v -4.5 7 -1.5
v -2.5 7 -1.5
v -1.5 7 -1.5
v -0.5 7 -1.5
v 1.5 8 0.5
v 2.5 8 0.5
v -2.5 8 -0.5
v -1.5 8 -0.5
v 1.5 8 -0.5
v 2.5 8 -0.5
v -2.5 8 -1.5
v -1.5 8 -1.5
v 0.5 9 0.5
v 1.5 9 0.5
v -1.5 9 -0.5
v -0.5 9 -0.5
v 0.5 9 -0.5
v 1.5 9 -0.5
v -1.5 9 -1.5
v -0.5 9 -1.5
v 3.5 10 0.5
v 4.5 10 0.5
v -4.5 10 -0.5
v -3.5 10 -0.5
v 3.5 10 -0.5
v 4.5 10 -0.5
v -4.5 10 -1.5
v -3.5 10 -1.5
v 4.5 11 0.5
v 5.5 11 0.5
v -5.5 11 -0.5
v -4.5 11 -0.5
v 4.5 11 -0.5
v 5.5 11 -0.5
v -5.5 11 -1.5
v -4.5 11 -1.5
v -5.5 2 0.5
v -4.5 2 0.5
v -5.5 2 -0.5
v -4.5 2 -0.5
v 4.5 2 -0.5
v 5.5 2 -0.5
v 4.5 2 -1.5
v 5.5 2 -1.5
v -4.5 3 0.5
v -3.5 3 0.5
v -4.5 3 -0.5
v -3.5 3 -0.5
v 3.5 3 -0.5
v 4.5 3 -0.5
v 3.5 3 -1.5
v 4.5 3 -1.5
v -3.5 4 0.5
v -2.5 4 0.5
v -3.5 4 -0.5
v -2.5 4 -0.5
v 2.5 4 -0.5
v 3.5 4 -0.5
v 2.5 4 -1.5
v 3.5 4 -1.5
v -2.5 5 0.5
v -1.5 5 0.5
v -2.5 5 -0.5
v -1.5 5 -0.5
v 1.5 5 -0.5
v 2.5 5 -0.5
v 1.5 5 -1.5
v 2.5 5 -1.5
v -1.5 6 0.5
v -0.5 6 0.5
v -1.5 6 -0.5
v -0.5 6 -0.5
v 0.5 6 -0.5
v 1.5 6 -0.5
v 0.5 6 -1.5
v 1.5 6 -1.5
v -0.5 7 0.5
v 0.5 7 0.5
v -0.5 7 -0.5
v 0.5 7 -0.5
v -0.5 7 -1.5
v 0.5 7 -1.5
v 0.5 8 0.5
v 1.5 8 0.5
v 3.5 8 0.5
v 4.5 8 0.5
v -4.5 8 -0.5
v -3.5 8 -0.5
v -1.5 8 -0.5
v -0.5 8 -0.5
v 0.5 8 -0.5
v 1.5 8 -0.5
v 3.5 8 -0.5
v 4.5 8 -0.5
v -4.5 8 -1.5
v -3.5 8 -1.5
v -1.5 8 -1.5
v -0.5 8 -1.5
v -5.5 10 1.5
v -4.5 10 1.5
v 4.5 10 1.5
v 5.5 10 1.5
v -5.5 10 0.5
v -4.5 10 0.5
v 1.5 10 0.5
v 2.5 10 0.5
v 3.5 10 0.5
v 4.5 10 0.5
v 5.5 10 0.5
v -3.5 10 -0.5
v -2.5 10 -0.5
v -1.5 10 -0.5
v 1.5 10 -0.5
v 2.5 10 -0.5
v 3.5 10 -0.5
v -3.5 10 -1.5
v -2.5 10 -1.5
v -1.5 10 -1.5
v -4.5 11 1.5
v -2.5 11 1.5
v 2.5 11 1.5
v 4.5 11 1.5
v -4.5 11 0.5
v -2.5 11 0.5
v 0.5 11 0.5
v 1.5 11 0.5
v 2.5 11 0.5
v 3.5 11 0.5
v 4.5 11 0.5
v -4.5 11 -0.5
v -3.5 11 -0.5
v -1.5 11 -0.5
v -0.5 11 -0.5
v 0.5 11 -0.5
v 1.5 11 -0.5
v 3.5 11 -0.5
v 4.5 11 -0.5
v -4.5 11 -1.5
v -3.5 11 -1.5
v -1.5 11 -1.5
v -0.5 11 -1.5
v -2.5 12 1.5
v 2.5 12 1.5
v -2.5 12 0.5
v 2.5 12 0.5
v 4.5 12 0.5
v 5.5 12 0.5
v -5.5 12 -0.5
v -4.5 12 -0.5
v 4.5 12 -0.5
v 5.5 12 -0.5
v -5.5 12 -1.5
v -4.5 12 -1.5

# faces
f 3/3/1 2/3/1 1/3/1
f 4/3/1 2/3/1 3/3/1
f 7/1/1 6/1/1 5/1/1
f 8/1/1 6/1/1 7/1/1
f 11/4/1 10/4/1 9/4/1
f 12/4/1 10/4/1 11/4/1
f 15/3/1 14/3/1 13/3/1
f 16/3/1 14/3/1 15/3/1
f 19/1/1 18/1/1 17/1/1
f 20/1/1 18/1/1 19/1/1
f 23/2/1 22/2/1 21/2/1
f 24/2/1 22/2/1 23/2/1
f 29/1/1 26/1/1 25/1/1
f 30/1/1 26/1/1 29/1/1
f 31/4/1 28/4/1 27/4/1
f 32/4/1 28/4/1 31/4/1
f 36/1/1 34/1/1 33/1/1
f 37/3/1 35/3/1 34/3/1
f 37/1/1 34/1/1 36/1/1
f 38/3/1 35/3/1 37/3/1
f 41/2/1 40/2/1 39/2/1
f 42/2/1 40/2/1 41/2/1
f 43/4/1 42/4/1 41/4/1
f 44/4/1 42/4/1 43/4/1
f 47/1/1 46/1/1 45/1/1
f 48/1/1 46/1/1 47/1/1
f 51/3/1 50/3/1 49/3/1
f 52/3/1 50/3/1 51/3/1
f 55/1/1 54/1/1 53/1/1
f 56/1/1 54/1/1 55/1/1
f 59/1/1 58/1/1 57/1/1
f 60/1/1 58/1/1 59/1/1
f 63/3/1 62/3/1 61/3/1
f 64/3/1 62/3/1 63/3/1
f 67/3/1 66/3/1 65/3/1
f 68/3/1 66/3/1 67/3/1
f 71/2/1 70/2/1 69/2/1
f 72/2/1 70/2/1 71/2/1
f 75/1/1 74/1/1 73/1/1
f 76/1/1 74/1/1 75/1/1
f 80/3/1 78/3/1 77/3/1
f 80/3/1 79/3/1 78/3/1
f 81/3/1 79/3/1 80/3/1
f 82/3/1 79/3/1 81/3/1
f 85/3/1 84/3/1 83/3/1
f 86/3/1 84/3/1 85/3/1
f 89/3/1 88/3/1 87/3/1
f 90/3/1 88/3/1 89/3/1
f 93/2/1 92/2/1 91/2/1
f 94/2/1 92/2/1 93/2/1
f 97/3/1 96/3/1 95/3/1
f 98/3/1 96/3/1 97/3/1
f 101/2/1 100/2/1 99/2/1
f 102/2/1 100/2/1 101/2/1
f 105/3/1 104/3/1 103/3/1
f 106/3/1 104/3/1 105/3/1
f 109/2/1 108/2/1 107/2/1
f 110/2/1 108/2/1 109/2/1
f 113/3/1 112/3/1 111/3/1
f 114/3/1 112/3/1 113/3/1
f 117/4/1 116/4/1 115/4/1
f 118/4/1 116/4/1 117/4/1
f 121/3/1 120/3/1 119/3/1
f 122/3/1 120/3/1 121/3/1
f 125/4/1 124/4/1 123/4/1
f 126/4/1 124/4/1 125/4/1
f 127/3/2 128/3/2 129/3/2
f 129/3/2 128/3/2 130/3/2
f 131/4/2 132/4/2 133/4/2
f 133/4/2 132/4/2 134/4/2
f 135/3/2 136/3/2 137/3/2
f 137/3/2 136/3/2 138/3/2
f 139/4/2 140/4/2 141/4/2
f 141/4/2 140/4/2 142/4/2
f 143/3/2 144/3/2 145/3/2
f 145/3/2 144/3/2 146/3/2
f 147/2/2 148/2/2 149/2/2
f 149/2/2 148/2/2 150/2/2
f 151/3/2 152/3/2 153/3/2
f 153/3/2 152/3/2 154/3/2
f 155/2/2 156/2/2 157/2/2
f 157/2/2 156/2/2 158/2/2
f 159/3/2 160/3/2 161/3/2
f 161/3/2 160/3/2 162/3/2
f 163/3/2 164/3/2 165/3/2
f 165/3/2 164/3/2 166/3/2
f 167/2/2 168/2/2 169/2/2
f 169/2/2 168/2/2 170/2/2
f 171/1/2 172/1/2 173/1/2
f 173/1/2 172/1/2 174/1/2
f 175/3/2 176/3/2 178/3/2
f 176/3/2 177/3/2 178/3/2
f 178/3/2 177/3/2 179/3/2
f 179/3/2 177/3/2 180/3/2
f 181/1/2 182/1/2 183/1/2
f 183/1/2 182/1/2 184/1/2
f 185/3/2 186/3/2 187/3/2
f 187/3/2 186/3/2 188/3/2
f 189/3/2 190/3/2 191/3/2
f 191/3/2 190/3/2 192/3/2
f 193/2/2 194/2/2 195/2/2
f 195/2/2 194/2/2 196/2/2
f 197/1/2 198/1/2 199/1/2
f 199/1/2 198/1/2 200/1/2
f 201/3/2 202/3/2 203/3/2
f 203/3/2 202/3/2 204/3/2
f 205/1/2 206/1/2 207/1/2
f 207/1/2 206/1/2 208/1/2
f 209/1/2 210/1/2 213/1/2
f 213/1/2 210/1/2 214/1/2
f 211/3/2 212/3/2 215/3/2
f 215/3/2 212/3/2 216/3/2
f 217/2/2 218/2/2 219/2/2
f 219/2/2 218/2/2 220/2/2
f 219/4/2 220/4/2 221/4/2
f 221/4/2 220/4/2 222/4/2
f 223/3/2 224/3/2 225/3/2
f 225/3/2 224/3/2 226/3/2
f 227/1/2 228/1/2 229/1/2
f 229/1/2 228/1/2 230/1/2
f 231/2/2 232/2/2 233/2/2
f 233/2/2 232/2/2 234/2/2
f 235/1/2 236/1/2 238/1/2
f 236/4/2 237/4/2 239/4/2
f 238/1/2 236/1/2 239/1/2
f 239/4/2 237/4/2 240/4/2
f 241/3/2 242/3/2 243/3/2
f 243/3/2 242/3/2 244/3/2
f 245/1/2 246/1/2 247/1/2
f 247/1/2 246/1/2 248/1/2
f 249/4/2 250/4/2 251/4/2
f 251/4/2 250/4/2 252/4/2
f 256/1/3 254/1/3 253/1/3
f 257/1/3 254/1/3 256/1/3
f 260/1/3 256/1/3 255/1/3
f 260/1/3 258/1/3 257/1/3
f 260/1/3 257/1/3 256/1/3
f 262/1/3 260/1/3 259/1/3
f 263/1/3 258/1/3 260/1/3
f 263/1/3 260/1/3 262/1/3
f 266/1/3 262/1/3 261/1/3
f 266/1/3 264/1/3 263/1/3
f 266/1/3 263/1/3 262/1/3
f 268/1/3 266/1/3 265/1/3
f 269/1/3 268/1/3 267/1/3
f 270/1/3 266/1/3 268/1/3
f 270/1/3 268/1/3 269/1/3
f 271/1/3 266/1/3 270/1/3
f 272/1/3 264/1/3 266/1/3
f 272/1/3 266/1/3 271/1/3
f 273/1/3 264/1/3 272/1/3
f 274/1/3 264/1/3 273/1/3
f 275/1/3 264/1/3 274/1/3
f 276/1/3 264/1/3 275/1/3
f 277/1/3 275/1/3 274/1/3
f 278/1/3 275/1/3 277/1/3
f 279/1/3 275/1/3 278/1/3
f 280/1/3 275/1/3 279/1/3
f 281/1/3 275/1/3 280/1/3
f 282/1/3 275/1/3 281/1/3
f 283/1/3 281/1/3 280/1/3
f 284/1/3 281/1/3 283/1/3
f 287/3/3 286/3/3 285/3/3
f 288/3/3 286/3/3 287/3/3
f 290/3/3 289/3/3 288/3/3
f 291/3/3 289/3/3 290/3/3
f 294/4/3 293/4/3 292/4/3
f 295/4/3 293/4/3 294/4/3
f 301/4/3 297/4/3 296/4/3
f 302/4/3 297/4/3 301/4/3
f 303/2/3 299/2/3 298/2/3
f 305/4/3 301/4/3 300/4/3
f 306/4/3 301/4/3 305/4/3
f 307/2/3 304/2/3 303/2/3
f 307/2/3 303/2/3 298/2/3
f 308/2/3 304/2/3 307/2/3
f 309/4/3 305/4/3 304/4/3
f 309/2/3 304/2/3 308/2/3
f 310/4/3 305/4/3 309/4/3
f 312/2/3 309/2/3 308/2/3
f 312/2/3 310/2/3 309/2/3
f 313/2/3 310/2/3 312/2/3
f 314/2/3 310/2/3 313/2/3
f 316/3/3 312/3/3 311/3/3
f 317/3/3 312/3/3 316/3/3
f 318/2/3 314/2/3 313/2/3
f 318/2/3 315/2/3 314/2/3
f 319/2/3 315/2/3 318/2/3
f 323/3/3 321/3/3 320/3/3
f 324/3/3 321/3/3 323/3/3
f 326/3/3 323/3/3 322/3/3
f 327/3/3 323/3/3 326/3/3
f 329/3/3 326/3/3 325/3/3
f 330/3/3 326/3/3 329/3/3
f 332/3/3 329/3/3 328/3/3
f 333/3/3 329/3/3 332/3/3
f 334/3/3 332/3/3 331/3/3
f 335/3/3 332/3/3 334/3/3
f 336/1/4 337/1/4 339/1/4
f 339/1/4 337/1/4 340/1/4
f 338/1/4 339/1/4 342/1/4
f 340/1/4 341/1/4 342/1/4
f 339/1/4 340/1/4 342/1/4
f 342/1/4 341/1/4 345/1/4
f 345/1/4 341/1/4 346/1/4
f 346/1/4 341/1/4 347/1/4
f 343/1/4 344/1/4 350/1/4
f 344/1/4 345/1/4 350/1/4
f 350/1/4 345/1/4 351/1/4
f 346/1/4 347/1/4 352/1/4
f 347/1/4 348/1/4 352/1/4
f 352/1/4 348/1/4 353/1/4
f 350/1/4 351/1/4 355/1/4
f 349/1/4 350/1/4 355/1/4
f 351/1/4 352/1/4 355/1/4
f 355/1/4 352/1/4 356/1/4
f 353/1/4 348/1/4 357/1/4
f 357/1/4 348/1/4 358/1/4
f 355/1/4 356/1/4 359/1/4
f 354/1/4 355/1/4 359/1/4
f 356/1/4 357/1/4 359/1/4
f 359/1/4 357/1/4 360/1/4
f 360/1/4 357/1/4 361/1/4
f 358/1/4 348/1/4 362/1/4
f 362/1/4 348/1/4 363/1/4
f 363/1/4 348/1/4 364/1/4
f 364/1/4 348/1/4 365/1/4
f 360/1/4 361/1/4 366/1/4
f 361/1/4 362/1/4 366/1/4
f 366/1/4 362/1/4 367/1/4
f 367/1/4 362/1/4 368/1/4
f 363/1/4 364/1/4 369/1/4
f 369/1/4 364/1/4 370/1/4
f 365/1/4 348/1/4 372/1/4
f 367/1/4 368/1/4 373/1/4
f 368/1/4 369/1/4 373/1/4
f 373/1/4 369/1/4 374/1/4
f 374/1/4 369/1/4 375/1/4
f 375/1/4 369/1/4 376/1/4
f 371/1/4 372/1/4 377/1/4
f 372/1/4 348/1/4 378/1/4
f 377/1/4 372/1/4 378/1/4
f 378/1/4 348/1/4 379/1/4
f 374/1/4 375/1/4 380/1/4
f 380/1/4 375/1/4 381/1/4
f 377/1/4 378/1/4 384/1/4
f 384/1/4 378/1/4 385/1/4
f 381/1/4 375/1/4 386/1/4
f 386/1/4 375/1/4 387/1/4
f 387/1/4 375/1/4 388/1/4
f 382/1/4 383/1/4 389/1/4
f 383/1/4 384/1/4 389/1/4
f 389/1/4 384/1/4 390/1/4
f 387/1/4 388/1/4 391/1/4
f 389/1/4 390/1/4 391/1/4
f 388/1/4 389/1/4 391/1/4
f 391/1/4 390/1/4 392/1/4
f 393/3/4 394/3/4 395/3/4
f 395/3/4 394/3/4 396/3/4
f 396/3/4 397/3/4 398/3/4
f 398/3/4 397/3/4 399/3/4
f 399/3/4 400/3/4 401/3/4
f 401/3/4 400/3/4 402/3/4
f 402/3/4 403/3/4 404/3/4
f 404/3/4 403/3/4 405/3/4
f 405/3/4 406/3/4 407/3/4
f 407/3/4 406/3/4 408/3/4
f 409/3/4 410/3/4 413/3/4
f 413/3/4 410/3/4 414/3/4
f 411/2/4 412/2/4 415/2/4
f 415/2/4 412/2/4 416/2/4
f 416/2/4 412/2/4 417/2/4
f 414/2/4 415/2/4 419/2/4
f 415/2/4 416/2/4 419/2/4
f 419/2/4 416/2/4 420/2/4
f 420/2/4 416/2/4 421/2/4
f 418/2/4 419/2/4 422/2/4
f 419/2/4 420/2/4 422/2/4
f 420/4/4 421/4/4 423/4/4
f 422/2/4 420/2/4 423/2/4
f 423/4/4 421/4/4 424/4/4
f 418/2/4 422/2/4 426/2/4
f 426/2/4 422/2/4 427/2/4
f 424/4/4 425/4/4 428/4/4
f 428/4/4 425/4/4 429/4/4
f 429/4/4 430/4/4 431/4/4
f 431/4/4 430/4/4 432/4/4
f 433/4/4 434/4/4 438/4/4
f 438/4/4 434/4/4 439/4/4
f 435/2/4 436/2/4 440/2/4
f 437/4/4 438/4/4 442/4/4
f 442/4/4 438/4/4 443/4/4
f 440/2/4 441/2/4 444/2/4
f 435/2/4 440/2/4 444/2/4
f 444/2/4 441/2/4 445/2/4
f 441/4/4 442/4/4 446/4/4
f 445/2/4 441/2/4 446/2/4
f 446/4/4 442/4/4 447/4/4
f 445/2/4 446/2/4 449/2/4
f 446/2/4 447/2/4 449/2/4
f 449/2/4 447/2/4 450/2/4
f 450/2/4 447/2/4 451/2/4
f 448/3/4 449/3/4 454/3/4
f 454/3/4 449/3/4 455/3/4
f 450/2/4 451/2/4 456/2/4
f 451/2/4 452/2/4 456/2/4
f 456/2/4 452/2/4 457/2/4
f 453/3/4 454/3/4 459/3/4
f 459/3/4 454/3/4 460/3/4
f 458/3/4 459/3/4 462/3/4
f 462/3/4 459/3/4 463/3/4
f 461/3/4 462/3/4 465/3/4
f 465/3/4 462/3/4 466/3/4
f 464/3/4 465/3/4 468/3/4
f 468/3/4 465/3/4 469/3/4
f 467/3/4 468/3/4 471/3/4
f 471/3/4 468/3/4 472/3/4
f 470/3/4 471/3/4 473/3/4
f 473/3/4 471/3/4 474/3/4
f 477/1/5 476/1/5 475/1/5
f 478/1/5 476/1/5 477/1/5
f 485/1/5 480/1/5 479/1/5
f 486/1/5 480/1/5 485/1/5
f 487/1/5 482/1/5 481/1/5
f 488/1/5 482/1/5 487/1/5
f 489/3/5 484/3/5 483/3/5
f 490/3/5 484/3/5 489/3/5
f 493/3/5 492/3/5 491/3/5
f 494/3/5 492/3/5 493/3/5
f 501/1/5 496/1/5 495/1/5
f 502/1/5 496/1/5 501/1/5
f 503/1/5 498/1/5 497/1/5
f 504/1/5 498/1/5 503/1/5
f 505/3/5 500/3/5 499/3/5
f 506/3/5 500/3/5 505/3/5
f 509/3/5 508/3/5 507/3/5
f 510/3/5 508/3/5 509/3/5
f 515/1/5 512/1/5 511/1/5
f 516/1/5 512/1/5 515/1/5
f 517/1/5 514/1/5 513/1/5
f 518/1/5 514/1/5 517/1/5
f 519/3/5 516/3/5 515/3/5
f 520/3/5 516/3/5 519/3/5
f 523/3/5 522/3/5 521/3/5
f 524/3/5 522/3/5 523/3/5
f 529/1/5 526/1/5 525/1/5
f 530/1/5 526/1/5 529/1/5
f 533/1/5 528/1/5 527/1/5
f 534/1/5 528/1/5 533/1/5
f 535/3/5 532/3/5 531/3/5
f 536/3/5 532/3/5 535/3/5
f 539/3/5 538/3/5 537/3/5
f 540/3/5 538/3/5 539/3/5
f 543/3/5 542/3/5 541/3/5
f 544/3/5 542/3/5 543/3/5
f 547/3/5 546/3/5 545/3/5
f 548/3/5 546/3/5 547/3/5
f 553/1/5 550/1/5 549/1/5
f 554/1/5 550/1/5 553/1/5
f 557/1/5 552/1/5 551/1/5
f 558/1/5 552/1/5 557/1/5
f 559/3/5 556/3/5 555/3/5
f 560/3/5 556/3/5 559/3/5
f 561/3/5 560/3/5 559/3/5
f 562/3/5 560/3/5 561/3/5
f 571/3/5 564/3/5 563/3/5
f 572/3/5 564/3/5 571/3/5
f 573/2/5 566/2/5 565/2/5
f 574/2/5 566/2/5 573/2/5
f 575/2/5 568/2/5 567/2/5
f 576/2/5 568/2/5 575/2/5
f 577/3/5 570/3/5 569/3/5
f 578/3/5 570/3/5 577/3/5
f 583/2/5 580/2/5 579/2/5
f 584/2/5 580/2/5 583/2/5
f 585/2/5 582/2/5 581/2/5
f 586/2/5 582/2/5 585/2/5
f 591/2/5 588/2/5 587/2/5
f 592/2/5 588/2/5 591/2/5
f 593/2/5 590/2/5 589/2/5
f 594/2/5 590/2/5 593/2/5
f 599/4/5 596/4/5 595/4/5
f 600/4/5 596/4/5 599/4/5
f 601/4/5 598/4/5 597/4/5
f 602/4/5 598/4/5 601/4/5
f 607/4/5 604/4/5 603/4/5
f 608/4/5 604/4/5 607/4/5
f 609/4/5 606/4/5 605/4/5
f 610/4/5 606/4/5 609/4/5
f 611/3/6 612/3/6 613/3/6
f 613/3/6 612/3/6 614/3/6
f 615/3/6 616/3/6 617/3/6
f 617/3/6 616/3/6 618/3/6
f 619/3/6 620/3/6 621/3/6
f 621/3/6 620/3/6 622/3/6
f 623/3/6 624/3/6 625/3/6
f 625/3/6 624/3/6 626/3/6
f 627/3/6 628/3/6 629/3/6
f 629/3/6 628/3/6 630/3/6
f 631/3/6 632/3/6 633/3/6
f 633/3/6 632/3/6 634/3/6
f 635/3/6 636/3/6 637/3/6
f 637/3/6 636/3/6 638/3/6
f 639/3/6 640/3/6 641/3/6
f 641/3/6 640/3/6 642/3/6
f 643/3/6 644/3/6 645/3/6
f 645/3/6 644/3/6 646/3/6
f 647/3/6 648/3/6 649/3/6
f 649/3/6 648/3/6 650/3/6
f 651/3/6 652/3/6 653/3/6
f 653/3/6 652/3/6 654/3/6
f 653/3/6 654/3/6 655/3/6
f 655/3/6 654/3/6 656/3/6
f 657/3/6 658/3/6 665/3/6
f 665/3/6 658/3/6 666/3/6
f 659/2/6 660/2/6 667/2/6
f 667/2/6 660/2/6 668/2/6
f 661/2/6 662/2/6 669/2/6
f 669/2/6 662/2/6 670/2/6
f 663/3/6 664/3/6 671/3/6
f 671/3/6 664/3/6 672/3/6
f 673/1/6 674/1/6 677/1/6
f 677/1/6 674/1/6 678/1/6
f 675/1/6 676/1/6 682/1/6
f 682/1/6 676/1/6 683/1/6
f 679/2/6 680/2/6 687/2/6
f 680/4/6 681/4/6 688/4/6
f 687/2/6 680/2/6 688/2/6
f 688/4/6 681/4/6 689/4/6
f 684/4/6 685/4/6 690/4/6
f 685/2/6 686/2/6 691/2/6
f 690/4/6 685/4/6 691/4/6
f 691/2/6 686/2/6 692/2/6
f 693/1/6 694/1/6 697/1/6
f 697/1/6 694/1/6 698/1/6
f 695/1/6 696/1/6 701/1/6
f 701/1/6 696/1/6 702/1/6
f 702/1/6 696/1/6 703/1/6
f 699/2/6 700/2/6 708/2/6
f 708/2/6 700/2/6 709/2/6
f 702/4/6 703/4/6 710/4/6
f 710/4/6 703/4/6 711/4/6
f 704/4/6 705/4/6 712/4/6
f 712/4/6 705/4/6 713/4/6
f 706/2/6 707/2/6 714/2/6
f 714/2/6 707/2/6 715/2/6
f 716/1/6 717/1/6 718/1/6
f 718/1/6 717/1/6 719/1/6
f 720/4/6 721/4/6 724/4/6
f 724/4/6 721/4/6 725/4/6
f 722/4/6 723/4/6 726/4/6
f 726/4/6 723/4/6 727/4/6
