# MagicaVoxel @ Ephtracy

# group
g house_trunk

# material
mtllib house_trunk.mtl
usemtl palette

# normals
vn -1 0 0
vn 1 0 0
vn 0 0 1
vn 0 0 -1
vn 0 -1 0
vn 0 1 0

# texcoords
vt 0.0175781 0.5
vt 0.861328 0.5
vt 0.873047 0.5
vt 0.912109 0.5
vt 0.916016 0.5
vt 0.986328 0.5
vt 0.994141 0.5

# verts
v -12 0 9
v -12 0 -8
v -12 0 -9
v -12 1 -8
v -12 1 -9
v -12 2 2
v -12 2 -0
v -12 3 2
v -12 3 -0
v -12 3 -2
v -12 4 5
v -12 4 4
v -12 4 -0
v -12 4 -2
v -12 4 -4
v -12 5 5
v -12 5 4
v -12 5 2
v -12 5 -2
v -12 5 -4
v -12 6 4
v -12 6 2
v -12 9 9
v -12 9 -9
v -12 10 9
v -12 10 -9
v -12 12 1
v -12 12 -0
v -12 13 9
v -12 13 1
v -12 13 -0
v -12 13 -9
v -10 11 -6
v -10 11 -7
v -10 12 -6
v -10 12 -7
v 11 1 7
v 11 1 -8
v 11 2 -8
v 11 3 -8
v 11 4 -8
v 11 8 7
v 11 8 -8
v -11 1 7
v -11 1 -8
v -11 2 2
v -11 2 -0
v -11 3 2
v -11 3 -0
v -11 3 -2
v -11 4 5
v -11 4 4
v -11 4 -0
v -11 4 -2
v -11 4 -4
v -11 5 5
v -11 5 4
v -11 5 2
v -11 5 -2
v -11 5 -4
v -11 6 4
v -11 6 2
v -11 8 7
v -11 8 -8
v -11 11 -6
v -11 11 -7
v -11 12 -6
v -11 12 -7
v 12 0 9
v 12 0 -9
v 12 1 -8
v 12 1 -9
v 12 2 -8
v 12 2 -9
v 12 3 -8
v 12 3 -9
v 12 4 -8
v 12 4 -9
v 12 5 -8
v 12 5 -9
v 12 6 -8
v 12 6 -9
v 12 9 9
v 12 9 -9
v 12 10 9
v 12 10 -9
v 12 13 9
v 12 13 -9
v -12 0 9
v -12 9 9
v -12 10 9
v -12 13 9
v -9 12 9
v -9 13 9
v -6 12 9
v -6 13 9
v 6 12 9
v 6 13 9
v 9 12 9
v 9 13 9
v 12 0 9
v 12 9 9
v 12 10 9
v 12 13 9
v -11 11 -7
v -11 12 -7
v -10 11 -7
v -10 12 -7
v -11 1 -8
v -11 8 -8
v -10 4 -8
v -10 5 -8
v -5 2 -8
v -5 3 -8
v -5 4 -8
v -5 5 -8
v 0 2 -8
v 0 3 -8
v 0 6 -8
v 0 7 -8
v 3 1 -8
v 3 2 -8
v 4 6 -8
v 4 7 -8
v 7 7 -8
v 7 8 -8
v 8 3 -8
v 8 4 -8
v 8 7 -8
v 8 8 -8
v 11 1 -8
v 11 2 -8
v 11 3 -8
v 11 4 -8
v 11 8 -8
v -11 1 7
v -11 8 7
v 11 1 7
v 11 8 7
v -11 11 -6
v -11 12 -6
v -10 11 -6
v -10 12 -6
v -12 0 -9
v -12 1 -9
v -12 9 -9
v -12 10 -9
v -12 13 -9
v -11 12 -9
v -11 13 -9
v -10 4 -9
v -10 5 -9
v -10 12 -9
v -10 13 -9
v -9 0 -9
v -9 1 -9
v -8 12 -9
v -8 13 -9
v -7 11 -9
v -7 12 -9
v -7 13 -9
v -6 11 -9
v -6 12 -9
v -6 13 -9
v -5 2 -9
v -5 3 -9
v -5 4 -9
v -5 5 -9
v -4 11 -9
v -4 12 -9
v -2 11 -9
v -2 12 -9
v 0 2 -9
v 0 3 -9
v 0 6 -9
v 0 7 -9
v 3 1 -9
v 3 2 -9
v 4 6 -9
v 4 7 -9
v 6 8 -9
v 6 9 -9
v 6 10 -9
v 6 13 -9
v 7 7 -9
v 7 8 -9
v 7 9 -9
v 7 10 -9
v 8 3 -9
v 8 4 -9
v 8 7 -9
v 8 8 -9
v 8 9 -9
v 8 10 -9
v 9 8 -9
v 9 9 -9
v 9 10 -9
v 9 11 -9
v 9 13 -9
v 10 10 -9
v 10 11 -9
v 11 5 -9
v 11 6 -9
v 12 0 -9
v 12 1 -9
v 12 2 -9
v 12 3 -9
v 12 4 -9
v 12 5 -9
v 12 6 -9
v 12 9 -9
v 12 10 -9
v 12 13 -9
v -12 0 9
v 12 0 9
v -12 0 -8
v -9 0 -8
v -12 0 -9
v -9 0 -9
v 12 0 -9
v -11 8 7
v 11 8 7
v -11 8 -8
v 7 8 -8
v 8 8 -8
v 11 8 -8
v -11 12 -6
v -10 12 -6
v -11 12 -7
v -10 12 -7
v -11 1 7
v 11 1 7
v -11 1 -8
v 3 1 -8
v 11 1 -8
v -11 11 -6
v -10 11 -6
v -11 11 -7
v -10 11 -7
v -12 13 9
v -9 13 9
v -6 13 9
v 6 13 9
v 9 13 9
v 12 13 9
v -2 13 6
v 5 13 6
v -2 13 5
v 5 13 5
v -12 13 1
v -9 13 1
v -12 13 -0
v -9 13 -0
v 10 13 -2
v 11 13 -2
v -5 13 -3
v -2 13 -3
v 10 13 -3
v 11 13 -3
v -5 13 -4
v -2 13 -4
v -2 13 -6
v 2 13 -6
v -9 13 -7
v -8 13 -7
v -2 13 -7
v 2 13 -7
v -11 13 -8
v -10 13 -8
v -9 13 -8
v -8 13 -8
v -7 13 -8
v -12 13 -9
v -11 13 -9
v -10 13 -9
v -8 13 -9
v -7 13 -9
v -6 13 -9
v 6 13 -9
v 9 13 -9
v 12 13 -9

# faces
f 4/5/1 2/5/1 1/5/1
f 4/4/1 3/4/1 2/4/1
f 5/4/1 3/4/1 4/4/1
f 6/5/1 4/5/1 1/5/1
f 6/5/1 5/5/1 4/5/1
f 7/5/1 5/5/1 6/5/1
f 8/5/1 6/5/1 1/5/1
f 8/4/1 7/4/1 6/4/1
f 9/5/1 5/5/1 7/5/1
f 9/4/1 7/4/1 8/4/1
f 10/5/1 5/5/1 9/5/1
f 11/5/1 8/5/1 1/5/1
f 11/5/1 9/5/1 8/5/1
f 12/5/1 9/5/1 11/5/1
f 13/4/1 10/4/1 9/4/1
f 13/5/1 9/5/1 12/5/1
f 14/5/1 5/5/1 10/5/1
f 14/4/1 10/4/1 13/4/1
f 15/5/1 5/5/1 14/5/1
f 16/4/1 12/4/1 11/4/1
f 16/5/1 11/5/1 1/5/1
f 17/5/1 13/5/1 12/5/1
f 17/4/1 12/4/1 16/4/1
f 17/5/1 14/5/1 13/5/1
f 18/5/1 14/5/1 17/5/1
f 19/4/1 15/4/1 14/4/1
f 19/5/1 14/5/1 18/5/1
f 20/5/1 5/5/1 15/5/1
f 20/4/1 15/4/1 19/4/1
f 21/4/1 18/4/1 17/4/1
f 21/5/1 17/5/1 16/5/1
f 22/5/1 19/5/1 18/5/1
f 22/4/1 18/4/1 21/4/1
f 22/5/1 20/5/1 19/5/1
f 23/5/1 16/5/1 1/5/1
f 23/5/1 21/5/1 16/5/1
f 23/5/1 22/5/1 21/5/1
f 24/5/1 20/5/1 22/5/1
f 24/5/1 22/5/1 23/5/1
f 24/5/1 5/5/1 20/5/1
f 25/6/1 24/6/1 23/6/1
f 26/6/1 24/6/1 25/6/1
f 27/5/1 26/5/1 25/5/1
f 28/5/1 26/5/1 27/5/1
f 29/5/1 27/5/1 25/5/1
f 30/4/1 28/4/1 27/4/1
f 30/5/1 27/5/1 29/5/1
f 31/5/1 26/5/1 28/5/1
f 31/4/1 28/4/1 30/4/1
f 32/5/1 26/5/1 31/5/1
f 35/5/1 34/5/1 33/5/1
f 36/5/1 34/5/1 35/5/1
f 39/5/1 38/5/1 37/5/1
f 40/5/1 39/5/1 37/5/1
f 41/5/1 40/5/1 37/5/1
f 42/5/1 41/5/1 37/5/1
f 43/5/1 41/5/1 42/5/1
f 44/5/2 45/5/2 46/5/2
f 46/5/2 45/5/2 47/5/2
f 44/5/2 46/5/2 48/5/2
f 46/4/2 47/4/2 48/4/2
f 47/5/2 45/5/2 49/5/2
f 48/4/2 47/4/2 49/4/2
f 49/5/2 45/5/2 50/5/2
f 44/5/2 48/5/2 51/5/2
f 48/5/2 49/5/2 51/5/2
f 51/5/2 49/5/2 52/5/2
f 49/4/2 50/4/2 53/4/2
f 52/5/2 49/5/2 53/5/2
f 50/5/2 45/5/2 54/5/2
f 53/4/2 50/4/2 54/4/2
f 54/5/2 45/5/2 55/5/2
f 51/4/2 52/4/2 56/4/2
f 44/5/2 51/5/2 56/5/2
f 52/5/2 53/5/2 57/5/2
f 56/4/2 52/4/2 57/4/2
f 53/5/2 54/5/2 57/5/2
f 57/5/2 54/5/2 58/5/2
f 54/4/2 55/4/2 59/4/2
f 58/5/2 54/5/2 59/5/2
f 55/5/2 45/5/2 60/5/2
f 59/4/2 55/4/2 60/4/2
f 57/4/2 58/4/2 61/4/2
f 56/5/2 57/5/2 61/5/2
f 58/5/2 59/5/2 62/5/2
f 61/4/2 58/4/2 62/4/2
f 59/5/2 60/5/2 62/5/2
f 44/5/2 56/5/2 63/5/2
f 56/5/2 61/5/2 63/5/2
f 61/5/2 62/5/2 63/5/2
f 62/5/2 60/5/2 64/5/2
f 63/5/2 62/5/2 64/5/2
f 60/5/2 45/5/2 64/5/2
f 65/5/2 66/5/2 67/5/2
f 67/5/2 66/5/2 68/5/2
f 69/5/2 70/5/2 71/5/2
f 71/5/2 70/5/2 72/5/2
f 69/5/2 71/5/2 73/5/2
f 71/4/2 72/4/2 73/4/2
f 73/4/2 72/4/2 74/4/2
f 69/5/2 73/5/2 75/5/2
f 73/5/2 74/5/2 75/5/2
f 75/5/2 74/5/2 76/5/2
f 69/5/2 75/5/2 77/5/2
f 75/4/2 76/4/2 77/4/2
f 77/4/2 76/4/2 78/4/2
f 69/5/2 77/5/2 79/5/2
f 77/5/2 78/5/2 79/5/2
f 79/5/2 78/5/2 80/5/2
f 69/5/2 79/5/2 81/5/2
f 79/4/2 80/4/2 81/4/2
f 81/4/2 80/4/2 82/4/2
f 69/5/2 81/5/2 83/5/2
f 81/5/2 82/5/2 83/5/2
f 83/5/2 82/5/2 84/5/2
f 83/6/2 84/6/2 85/6/2
f 85/6/2 84/6/2 86/6/2
f 85/5/2 86/5/2 87/5/2
f 87/5/2 86/5/2 88/5/2
f 93/5/3 92/5/3 91/5/3
f 94/5/3 92/5/3 93/5/3
f 95/5/3 93/5/3 91/5/3
f 95/3/3 94/3/3 93/3/3
f 96/3/3 94/3/3 95/3/3
f 97/5/3 95/5/3 91/5/3
f 97/5/3 96/5/3 95/5/3
f 98/5/3 96/5/3 97/5/3
f 99/5/3 97/5/3 91/5/3
f 99/3/3 98/3/3 97/3/3
f 100/3/3 98/3/3 99/3/3
f 101/5/3 90/5/3 89/5/3
f 102/6/3 91/6/3 90/6/3
f 102/5/3 90/5/3 101/5/3
f 103/5/3 99/5/3 91/5/3
f 103/6/3 91/6/3 102/6/3
f 103/5/3 100/5/3 99/5/3
f 104/5/3 100/5/3 103/5/3
f 107/5/3 106/5/3 105/5/3
f 108/5/3 106/5/3 107/5/3
f 111/5/3 110/5/3 109/5/3
f 112/5/3 110/5/3 111/5/3
f 113/5/3 111/5/3 109/5/3
f 114/5/3 111/5/3 113/5/3
f 115/4/3 112/4/3 111/4/3
f 115/5/3 111/5/3 114/5/3
f 116/5/3 110/5/3 112/5/3
f 116/4/3 112/4/3 115/4/3
f 117/4/3 114/4/3 113/4/3
f 117/5/3 113/5/3 109/5/3
f 118/5/3 115/5/3 114/5/3
f 118/4/3 114/4/3 117/4/3
f 118/5/3 116/5/3 115/5/3
f 119/5/3 110/5/3 116/5/3
f 119/5/3 116/5/3 118/5/3
f 120/5/3 110/5/3 119/5/3
f 121/5/3 117/5/3 109/5/3
f 121/5/3 118/5/3 117/5/3
f 121/5/3 119/5/3 118/5/3
f 122/5/3 119/5/3 121/5/3
f 123/4/3 120/4/3 119/4/3
f 123/5/3 119/5/3 122/5/3
f 124/5/3 110/5/3 120/5/3
f 124/4/3 120/4/3 123/4/3
f 125/5/3 124/5/3 123/5/3
f 125/5/3 110/5/3 124/5/3
f 126/5/3 110/5/3 125/5/3
f 127/5/3 123/5/3 122/5/3
f 127/5/3 125/5/3 123/5/3
f 128/5/3 125/5/3 127/5/3
f 129/3/3 126/3/3 125/3/3
f 129/5/3 125/5/3 128/5/3
f 130/3/3 126/3/3 129/3/3
f 131/4/3 122/4/3 121/4/3
f 132/5/3 127/5/3 122/5/3
f 132/4/3 122/4/3 131/4/3
f 133/4/3 128/4/3 127/4/3
f 133/5/3 127/5/3 132/5/3
f 134/5/3 129/5/3 128/5/3
f 134/4/3 128/4/3 133/4/3
f 134/5/3 130/5/3 129/5/3
f 135/5/3 130/5/3 134/5/3
f 136/5/4 137/5/4 138/5/4
f 138/5/4 137/5/4 139/5/4
f 140/7/4 141/7/4 142/7/4
f 142/7/4 141/7/4 143/7/4
f 147/5/4 148/5/4 149/5/4
f 149/5/4 148/5/4 150/5/4
f 145/5/4 146/5/4 151/5/4
f 151/5/4 146/5/4 152/5/4
f 147/5/4 149/5/4 153/5/4
f 149/4/4 150/4/4 153/4/4
f 153/4/4 150/4/4 154/4/4
f 144/4/4 145/4/4 155/4/4
f 145/5/4 151/5/4 156/5/4
f 155/4/4 145/4/4 156/4/4
f 147/5/4 153/5/4 157/5/4
f 153/5/4 154/5/4 157/5/4
f 157/5/4 154/5/4 158/5/4
f 147/5/4 157/5/4 159/5/4
f 157/2/4 158/2/4 160/2/4
f 159/5/4 157/5/4 160/5/4
f 160/2/4 158/2/4 161/2/4
f 147/5/4 159/5/4 162/5/4
f 159/2/4 160/2/4 162/2/4
f 160/3/4 161/3/4 163/3/4
f 162/2/4 160/2/4 163/2/4
f 163/3/4 161/3/4 164/3/4
f 156/5/4 151/5/4 165/5/4
f 155/5/4 156/5/4 165/5/4
f 165/5/4 151/5/4 166/5/4
f 151/4/4 152/4/4 167/4/4
f 166/5/4 151/5/4 167/5/4
f 152/5/4 146/5/4 168/5/4
f 167/4/4 152/4/4 168/4/4
f 163/5/4 164/5/4 169/5/4
f 147/5/4 162/5/4 169/5/4
f 162/5/4 163/5/4 169/5/4
f 169/5/4 164/5/4 170/5/4
f 147/5/4 169/5/4 171/5/4
f 169/4/4 170/4/4 171/4/4
f 170/5/4 164/5/4 172/5/4
f 171/4/4 170/4/4 172/4/4
f 165/4/4 166/4/4 173/4/4
f 155/5/4 165/5/4 173/5/4
f 166/5/4 167/5/4 174/5/4
f 173/4/4 166/4/4 174/4/4
f 167/5/4 168/5/4 174/5/4
f 168/5/4 146/5/4 175/5/4
f 174/5/4 168/5/4 175/5/4
f 175/5/4 146/5/4 176/5/4
f 155/5/4 173/5/4 177/5/4
f 173/5/4 174/5/4 177/5/4
f 174/5/4 175/5/4 177/5/4
f 177/5/4 175/5/4 178/5/4
f 175/4/4 176/4/4 179/4/4
f 178/5/4 175/5/4 179/5/4
f 176/5/4 146/5/4 180/5/4
f 179/4/4 176/4/4 180/4/4
f 179/5/4 180/5/4 181/5/4
f 180/5/4 146/5/4 181/5/4
f 146/6/4 147/6/4 182/6/4
f 181/5/4 146/5/4 182/5/4
f 147/5/4 171/5/4 183/5/4
f 182/6/4 147/6/4 183/6/4
f 171/5/4 172/5/4 183/5/4
f 172/5/4 164/5/4 184/5/4
f 183/5/4 172/5/4 184/5/4
f 179/5/4 181/5/4 185/5/4
f 181/3/4 182/3/4 186/3/4
f 185/5/4 181/5/4 186/5/4
f 182/7/4 183/7/4 187/7/4
f 186/3/4 182/3/4 187/3/4
f 183/3/4 184/3/4 188/3/4
f 187/7/4 183/7/4 188/7/4
f 178/5/4 179/5/4 189/5/4
f 179/5/4 185/5/4 189/5/4
f 189/5/4 185/5/4 190/5/4
f 185/3/4 186/3/4 191/3/4
f 190/5/4 185/5/4 191/5/4
f 186/3/4 187/3/4 191/3/4
f 191/3/4 187/3/4 192/3/4
f 187/1/4 188/1/4 193/1/4
f 192/3/4 187/3/4 193/3/4
f 188/3/4 184/3/4 194/3/4
f 193/1/4 188/1/4 194/1/4
f 192/3/4 193/3/4 195/3/4
f 191/5/4 192/5/4 195/5/4
f 190/5/4 191/5/4 195/5/4
f 193/7/4 194/7/4 196/7/4
f 195/3/4 193/3/4 196/3/4
f 194/3/4 184/3/4 197/3/4
f 196/7/4 194/7/4 197/7/4
f 197/3/4 184/3/4 198/3/4
f 198/3/4 184/3/4 199/3/4
f 196/6/4 197/6/4 200/6/4
f 197/4/4 198/4/4 200/4/4
f 198/5/4 199/5/4 201/5/4
f 200/4/4 198/4/4 201/4/4
f 195/5/4 196/5/4 202/5/4
f 190/5/4 195/5/4 202/5/4
f 202/5/4 196/5/4 203/5/4
f 155/5/4 177/5/4 204/5/4
f 177/4/4 178/4/4 205/4/4
f 204/5/4 177/5/4 205/5/4
f 178/5/4 189/5/4 206/5/4
f 205/4/4 178/4/4 206/4/4
f 189/4/4 190/4/4 207/4/4
f 206/5/4 189/5/4 207/5/4
f 190/5/4 202/5/4 208/5/4
f 207/4/4 190/4/4 208/4/4
f 202/4/4 203/4/4 209/4/4
f 208/5/4 202/5/4 209/5/4
f 203/5/4 196/5/4 210/5/4
f 209/4/4 203/4/4 210/4/4
f 196/6/4 200/6/4 211/6/4
f 210/5/4 196/5/4 211/5/4
f 200/5/4 201/5/4 212/5/4
f 211/6/4 200/6/4 212/6/4
f 201/5/4 199/5/4 213/5/4
f 212/5/4 201/5/4 213/5/4
f 216/5/5 215/5/5 214/5/5
f 217/5/5 215/5/5 216/5/5
f 218/4/5 217/4/5 216/4/5
f 219/5/5 215/5/5 217/5/5
f 219/4/5 217/4/5 218/4/5
f 220/5/5 215/5/5 219/5/5
f 223/5/5 222/5/5 221/5/5
f 224/5/5 222/5/5 223/5/5
f 225/5/5 222/5/5 224/5/5
f 226/5/5 222/5/5 225/5/5
f 229/5/5 228/5/5 227/5/5
f 230/5/5 228/5/5 229/5/5
f 231/5/6 232/5/6 233/5/6
f 233/5/6 232/5/6 234/5/6
f 234/5/6 232/5/6 235/5/6
f 236/7/6 237/7/6 238/7/6
f 238/7/6 237/7/6 239/7/6
f 242/5/6 243/5/6 246/5/6
f 246/5/6 243/5/6 247/5/6
f 242/5/6 246/5/6 248/5/6
f 246/4/6 247/4/6 248/4/6
f 247/5/6 243/5/6 249/5/6
f 248/4/6 247/4/6 249/4/6
f 240/5/6 241/5/6 250/5/6
f 241/3/6 242/3/6 251/3/6
f 250/5/6 241/5/6 251/5/6
f 250/4/6 251/4/6 252/4/6
f 251/3/6 242/3/6 253/3/6
f 252/4/6 251/4/6 253/4/6
f 244/5/6 245/5/6 254/5/6
f 254/5/6 245/5/6 255/5/6
f 242/5/6 248/5/6 256/5/6
f 248/5/6 249/5/6 256/5/6
f 256/5/6 249/5/6 257/5/6
f 254/4/6 255/4/6 258/4/6
f 244/5/6 254/5/6 258/5/6
f 255/5/6 245/5/6 259/5/6
f 258/4/6 255/4/6 259/4/6
f 256/4/6 257/4/6 260/4/6
f 242/5/6 256/5/6 260/5/6
f 257/5/6 249/5/6 261/5/6
f 260/4/6 257/4/6 261/4/6
f 260/5/6 261/5/6 262/5/6
f 261/5/6 249/5/6 262/5/6
f 262/5/6 249/5/6 263/5/6
f 253/3/6 242/3/6 264/3/6
f 252/5/6 253/5/6 264/5/6
f 264/3/6 242/3/6 265/3/6
f 262/4/6 263/4/6 266/4/6
f 260/5/6 262/5/6 266/5/6
f 263/5/6 249/5/6 267/5/6
f 266/4/6 263/4/6 267/4/6
f 252/5/6 264/5/6 268/5/6
f 268/5/6 264/5/6 269/5/6
f 264/2/6 265/2/6 270/2/6
f 269/5/6 264/5/6 270/5/6
f 265/3/6 242/3/6 271/3/6
f 270/2/6 265/2/6 271/2/6
f 271/3/6 242/3/6 272/3/6
f 252/5/6 268/5/6 273/5/6
f 268/4/6 269/4/6 274/4/6
f 273/5/6 268/5/6 274/5/6
f 269/5/6 270/5/6 275/5/6
f 274/4/6 269/4/6 275/4/6
f 270/5/6 271/5/6 275/5/6
f 271/2/6 272/2/6 276/2/6
f 275/5/6 271/5/6 276/5/6
f 272/3/6 242/3/6 277/3/6
f 276/2/6 272/2/6 277/2/6
f 260/5/6 266/5/6 278/5/6
f 277/3/6 242/3/6 278/3/6
f 242/5/6 260/5/6 278/5/6
f 266/5/6 267/5/6 278/5/6
f 249/5/6 243/5/6 279/5/6
f 278/5/6 267/5/6 279/5/6
f 243/3/6 244/3/6 279/3/6
f 267/5/6 249/5/6 279/5/6
f 244/5/6 258/5/6 280/5/6
f 279/3/6 244/3/6 280/3/6
f 258/5/6 259/5/6 280/5/6
f 259/5/6 245/5/6 281/5/6
f 280/5/6 259/5/6 281/5/6
