# MagicaVoxel @ Ephtracy

# group
g house_trunk

# material
mtllib house_trunk.mtl
usemtl palette

# normals
vn -1 0 0
vn 1 0 0
vn 0 0 1
vn 0 0 -1
vn 0 -1 0
vn 0 1 0

# texcoords
vt 0.0175781 0.5
vt 0.654297 0.5
vt 0.861328 0.5
vt 0.873047 0.5
vt 0.912109 0.5
vt 0.916016 0.5
vt 0.986328 0.5
vt 0.994141 0.5

# verts
v -12 0 9
v -12 0 -8
v -12 0 -9
v -12 1 -8
v -12 1 -9
v -12 2 2
v -12 2 -0
v -12 3 2
v -12 3 -0
v -12 3 -2
v -12 4 5
v -12 4 4
v -12 4 -0
v -12 4 -2
v -12 4 -4
v -12 5 5
v -12 5 4
v -12 5 2
v -12 5 -2
v -12 5 -4
v -12 6 4
v -12 6 2
v -12 9 9
v -12 9 -9
v -12 10 9
v -12 10 -9
v -12 12 1
v -12 12 -0
v -12 13 9
v -12 13 1
v -12 13 -0
v -12 13 -9
v -10 11 -6
v -10 11 -7
v -10 12 -6
v -10 12 -7
v 11 1 7
v 11 1 -8
v 11 2 -8
v 11 3 -8
v 11 4 -8
v 11 8 7
v 11 8 -8
v -11 1 7
v -11 1 -8
v -11 2 2
v -11 2 -0
v -11 3 2
v -11 3 -0
v -11 3 -2
v -11 4 5
v -11 4 4
v -11 4 -0
v -11 4 -2
v -11 4 -4
v -11 5 5
v -11 5 4
v -11 5 2
v -11 5 -2
v -11 5 -4
v -11 6 4
v -11 6 2
v -11 8 7
v -11 8 -8
v -11 11 -6
v -11 11 -7
v -11 12 -6
v -11 12 -7
v 12 0 9
v 12 0 -9
v 12 1 -8
v 12 1 -9
v 12 2 -8
v 12 2 -9
v 12 3 -8
v 12 3 -9
v 12 4 -8
v 12 4 -9
v 12 5 -8
v 12 5 -9
v 12 6 -8
v 12 6 -9
v 12 9 9
v 12 9 -9
v 12 10 9
v 12 10 -9
v 12 13 9
v 12 13 -9
v -12 0 9
v -12 9 9
v -12 10 9
v -12 13 9
v -9 12 9
v -9 13 9
v -6 12 9
v -6 13 9
v 6 12 9
v 6 13 9
v 9 12 9
v 9 13 9
v 12 0 9
v 12 9 9
v 12 10 9
v 12 13 9
v -11 11 -7
v -11 12 -7
v -10 11 -7
v -10 12 -7
v -11 1 -8
v -11 8 -8
v -10 4 -8
v -10 5 -8
v -5 2 -8
v -5 3 -8
v -5 4 -8
v -5 5 -8
v 0 2 -8
v 0 3 -8
v 0 6 -8
v 0 7 -8
v 3 1 -8
v 3 2 -8
v 4 6 -8
v 4 7 -8
v 7 7 -8
v 7 8 -8
v 8 3 -8
v 8 4 -8
v 8 7 -8
v 8 8 -8
v 11 1 -8
v 11 2 -8
v 11 3 -8
v 11 4 -8
v 11 8 -8
v -11 1 7
v -11 8 7
v 11 1 7
v 11 8 7
v -11 11 -6
v -11 12 -6
v -10 11 -6
v -10 12 -6
v -12 0 -9
v -12 1 -9
v -12 9 -9
v -12 10 -9
v -12 13 -9
v -11 12 -9
v -11 13 -9
v -10 4 -9
v -10 5 -9
v -10 12 -9
v -10 13 -9
v -9 0 -9
v -9 1 -9
v -8 12 -9
v -8 13 -9
v -7 11 -9
v -7 12 -9
v -7 13 -9
v -6 11 -9
v -6 12 -9
v -6 13 -9
v -5 2 -9
v -5 3 -9
v -5 4 -9
v -5 5 -9
v -4 11 -9
v -4 12 -9
v -2 11 -9
v -2 12 -9
v 0 2 -9
v 0 3 -9
v 0 6 -9
v 0 7 -9
v 3 1 -9
v 3 2 -9
v 4 6 -9
v 4 7 -9
v 6 8 -9
v 6 9 -9
v 6 10 -9
v 6 13 -9
v 7 7 -9
v 7 8 -9
v 7 9 -9
v 7 10 -9
v 8 3 -9
v 8 4 -9
v 8 7 -9
v 8 8 -9
v 8 9 -9
v 8 10 -9
v 9 8 -9
v 9 9 -9
v 9 10 -9
v 9 11 -9
v 9 13 -9
v 10 10 -9
v 10 11 -9
v 11 5 -9
v 11 6 -9
v 12 0 -9
v 12 1 -9
v 12 2 -9
v 12 3 -9
v 12 4 -9
v 12 5 -9
v 12 6 -9
v 12 9 -9
v 12 10 -9
v 12 13 -9
v -12 0 9
v 12 0 9
v -11 0 8
v 11 0 8
v -12 0 -8
v -11 0 -8
v -9 0 -8
v 11 0 -8
v -12 0 -9
v -9 0 -9
v 12 0 -9
v -11 8 7
v 11 8 7
v -11 8 -8
v 7 8 -8
v 8 8 -8
v 11 8 -8
v -11 12 -6
v -10 12 -6
v -11 12 -7
v -10 12 -7
v -11 1 7
v 11 1 7
v -11 1 -8
v 3 1 -8
v 11 1 -8
v -11 11 -6
v -10 11 -6
v -11 11 -7
v -10 11 -7
v -12 13 9
v -9 13 9
v -6 13 9
v 6 13 9
v 9 13 9
v 12 13 9
v -2 13 6
v 5 13 6
v -2 13 5
v 5 13 5
v -12 13 1
v -9 13 1
v -12 13 -0
v -9 13 -0
v 10 13 -2
v 11 13 -2
v -5 13 -3
v -2 13 -3
v 10 13 -3
v 11 13 -3
v -5 13 -4
v -2 13 -4
v -2 13 -6
v 2 13 -6
v -9 13 -7
v -8 13 -7
v -2 13 -7
v 2 13 -7
v -11 13 -8
v -10 13 -8
v -9 13 -8
v -8 13 -8
v -7 13 -8
v -12 13 -9
v -11 13 -9
v -10 13 -9
v -8 13 -9
v -7 13 -9
v -6 13 -9
v 6 13 -9
v 9 13 -9
v 12 13 -9

# faces
f 4/2/1 2/2/1 1/2/1
f 4/5/1 3/5/1 2/5/1
f 5/5/1 3/5/1 4/5/1
f 6/2/1 4/2/1 1/2/1
f 6/2/1 5/2/1 4/2/1
f 7/2/1 5/2/1 6/2/1
f 8/2/1 6/2/1 1/2/1
f 8/5/1 7/5/1 6/5/1
f 9/2/1 5/2/1 7/2/1
f 9/5/1 7/5/1 8/5/1
f 10/2/1 5/2/1 9/2/1
f 11/2/1 8/2/1 1/2/1
f 11/2/1 9/2/1 8/2/1
f 12/2/1 9/2/1 11/2/1
f 13/5/1 10/5/1 9/5/1
f 13/2/1 9/2/1 12/2/1
f 14/2/1 5/2/1 10/2/1
f 14/5/1 10/5/1 13/5/1
f 15/2/1 5/2/1 14/2/1
f 16/5/1 12/5/1 11/5/1
f 16/2/1 11/2/1 1/2/1
f 17/2/1 13/2/1 12/2/1
f 17/5/1 12/5/1 16/5/1
f 17/2/1 14/2/1 13/2/1
f 18/2/1 14/2/1 17/2/1
f 19/5/1 15/5/1 14/5/1
f 19/2/1 14/2/1 18/2/1
f 20/2/1 5/2/1 15/2/1
f 20/5/1 15/5/1 19/5/1
f 21/5/1 18/5/1 17/5/1
f 21/2/1 17/2/1 16/2/1
f 22/2/1 19/2/1 18/2/1
f 22/5/1 18/5/1 21/5/1
f 22/2/1 20/2/1 19/2/1
f 23/2/1 16/2/1 1/2/1
f 23/2/1 21/2/1 16/2/1
f 23/2/1 22/2/1 21/2/1
f 24/2/1 20/2/1 22/2/1
f 24/2/1 22/2/1 23/2/1
f 24/2/1 5/2/1 20/2/1
f 25/7/1 24/7/1 23/7/1
f 26/7/1 24/7/1 25/7/1
f 27/2/1 26/2/1 25/2/1
f 28/2/1 26/2/1 27/2/1
f 29/2/1 27/2/1 25/2/1
f 30/5/1 28/5/1 27/5/1
f 30/2/1 27/2/1 29/2/1
f 31/2/1 26/2/1 28/2/1
f 31/5/1 28/5/1 30/5/1
f 32/2/1 26/2/1 31/2/1
f 35/6/1 34/6/1 33/6/1
f 36/6/1 34/6/1 35/6/1
f 39/2/1 38/2/1 37/2/1
f 40/2/1 39/2/1 37/2/1
f 41/2/1 40/2/1 37/2/1
f 42/2/1 41/2/1 37/2/1
f 43/2/1 41/2/1 42/2/1
f 44/2/2 45/2/2 46/2/2
f 46/2/2 45/2/2 47/2/2
f 44/2/2 46/2/2 48/2/2
f 46/5/2 47/5/2 48/5/2
f 47/2/2 45/2/2 49/2/2
f 48/5/2 47/5/2 49/5/2
f 49/2/2 45/2/2 50/2/2
f 44/2/2 48/2/2 51/2/2
f 48/2/2 49/2/2 51/2/2
f 51/2/2 49/2/2 52/2/2
f 49/5/2 50/5/2 53/5/2
f 52/2/2 49/2/2 53/2/2
f 50/2/2 45/2/2 54/2/2
f 53/5/2 50/5/2 54/5/2
f 54/2/2 45/2/2 55/2/2
f 51/5/2 52/5/2 56/5/2
f 44/2/2 51/2/2 56/2/2
f 52/2/2 53/2/2 57/2/2
f 56/5/2 52/5/2 57/5/2
f 53/2/2 54/2/2 57/2/2
f 57/2/2 54/2/2 58/2/2
f 54/5/2 55/5/2 59/5/2
f 58/2/2 54/2/2 59/2/2
f 55/2/2 45/2/2 60/2/2
f 59/5/2 55/5/2 60/5/2
f 57/5/2 58/5/2 61/5/2
f 56/2/2 57/2/2 61/2/2
f 58/2/2 59/2/2 62/2/2
f 61/5/2 58/5/2 62/5/2
f 59/2/2 60/2/2 62/2/2
f 44/2/2 56/2/2 63/2/2
f 56/2/2 61/2/2 63/2/2
f 61/2/2 62/2/2 63/2/2
f 62/2/2 60/2/2 64/2/2
f 63/2/2 62/2/2 64/2/2
f 60/2/2 45/2/2 64/2/2
f 65/2/2 66/2/2 67/2/2
f 67/2/2 66/2/2 68/2/2
f 69/2/2 70/2/2 71/2/2
f 71/2/2 70/2/2 72/2/2
f 69/2/2 71/2/2 73/2/2
f 71/5/2 72/5/2 73/5/2
f 73/5/2 72/5/2 74/5/2
f 69/2/2 73/2/2 75/2/2
f 73/2/2 74/2/2 75/2/2
f 75/2/2 74/2/2 76/2/2
f 69/2/2 75/2/2 77/2/2
f 75/5/2 76/5/2 77/5/2
f 77/5/2 76/5/2 78/5/2
f 69/2/2 77/2/2 79/2/2
f 77/2/2 78/2/2 79/2/2
f 79/2/2 78/2/2 80/2/2
f 69/2/2 79/2/2 81/2/2
f 79/5/2 80/5/2 81/5/2
f 81/5/2 80/5/2 82/5/2
f 69/2/2 81/2/2 83/2/2
f 81/2/2 82/2/2 83/2/2
f 83/2/2 82/2/2 84/2/2
f 83/7/2 84/7/2 85/7/2
f 85/7/2 84/7/2 86/7/2
f 85/2/2 86/2/2 87/2/2
f 87/2/2 86/2/2 88/2/2
f 93/2/3 92/2/3 91/2/3
f 94/2/3 92/2/3 93/2/3
f 95/2/3 93/2/3 91/2/3
f 95/4/3 94/4/3 93/4/3
f 96/4/3 94/4/3 95/4/3
f 97/2/3 95/2/3 91/2/3
f 97/2/3 96/2/3 95/2/3
f 98/2/3 96/2/3 97/2/3
f 99/2/3 97/2/3 91/2/3
f 99/4/3 98/4/3 97/4/3
f 100/4/3 98/4/3 99/4/3
f 101/2/3 90/2/3 89/2/3
f 102/7/3 91/7/3 90/7/3
f 102/2/3 90/2/3 101/2/3
f 103/2/3 99/2/3 91/2/3
f 103/7/3 91/7/3 102/7/3
f 103/2/3 100/2/3 99/2/3
f 104/2/3 100/2/3 103/2/3
f 107/6/3 106/6/3 105/6/3
f 108/6/3 106/6/3 107/6/3
f 111/2/3 110/2/3 109/2/3
f 112/2/3 110/2/3 111/2/3
f 113/2/3 111/2/3 109/2/3
f 114/2/3 111/2/3 113/2/3
f 115/5/3 112/5/3 111/5/3
f 115/2/3 111/2/3 114/2/3
f 116/2/3 110/2/3 112/2/3
f 116/5/3 112/5/3 115/5/3
f 117/5/3 114/5/3 113/5/3
f 117/2/3 113/2/3 109/2/3
f 118/2/3 115/2/3 114/2/3
f 118/5/3 114/5/3 117/5/3
f 118/2/3 116/2/3 115/2/3
f 119/2/3 110/2/3 116/2/3
f 119/2/3 116/2/3 118/2/3
f 120/2/3 110/2/3 119/2/3
f 121/2/3 117/2/3 109/2/3
f 121/2/3 118/2/3 117/2/3
f 121/2/3 119/2/3 118/2/3
f 122/2/3 119/2/3 121/2/3
f 123/5/3 120/5/3 119/5/3
f 123/2/3 119/2/3 122/2/3
f 124/2/3 110/2/3 120/2/3
f 124/5/3 120/5/3 123/5/3
f 125/2/3 124/2/3 123/2/3
f 125/2/3 110/2/3 124/2/3
f 126/2/3 110/2/3 125/2/3
f 127/2/3 123/2/3 122/2/3
f 127/2/3 125/2/3 123/2/3
f 128/2/3 125/2/3 127/2/3
f 129/4/3 126/4/3 125/4/3
f 129/2/3 125/2/3 128/2/3
f 130/4/3 126/4/3 129/4/3
f 131/5/3 122/5/3 121/5/3
f 132/2/3 127/2/3 122/2/3
f 132/5/3 122/5/3 131/5/3
f 133/5/3 128/5/3 127/5/3
f 133/2/3 127/2/3 132/2/3
f 134/2/3 129/2/3 128/2/3
f 134/5/3 128/5/3 133/5/3
f 134/2/3 130/2/3 129/2/3
f 135/2/3 130/2/3 134/2/3
f 136/6/4 137/6/4 138/6/4
f 138/6/4 137/6/4 139/6/4
f 140/8/4 141/8/4 142/8/4
f 142/8/4 141/8/4 143/8/4
f 147/2/4 148/2/4 149/2/4
f 149/2/4 148/2/4 150/2/4
f 145/2/4 146/2/4 151/2/4
f 151/2/4 146/2/4 152/2/4
f 147/2/4 149/2/4 153/2/4
f 149/5/4 150/5/4 153/5/4
f 153/5/4 150/5/4 154/5/4
f 144/5/4 145/5/4 155/5/4
f 145/2/4 151/2/4 156/2/4
f 155/5/4 145/5/4 156/5/4
f 147/2/4 153/2/4 157/2/4
f 153/2/4 154/2/4 157/2/4
f 157/2/4 154/2/4 158/2/4
f 147/2/4 157/2/4 159/2/4
f 157/3/4 158/3/4 160/3/4
f 159/2/4 157/2/4 160/2/4
f 160/3/4 158/3/4 161/3/4
f 147/2/4 159/2/4 162/2/4
f 159/3/4 160/3/4 162/3/4
f 160/4/4 161/4/4 163/4/4
f 162/3/4 160/3/4 163/3/4
f 163/4/4 161/4/4 164/4/4
f 156/2/4 151/2/4 165/2/4
f 155/2/4 156/2/4 165/2/4
f 165/2/4 151/2/4 166/2/4
f 151/5/4 152/5/4 167/5/4
f 166/2/4 151/2/4 167/2/4
f 152/2/4 146/2/4 168/2/4
f 167/5/4 152/5/4 168/5/4
f 163/2/4 164/2/4 169/2/4
f 147/2/4 162/2/4 169/2/4
f 162/2/4 163/2/4 169/2/4
f 169/2/4 164/2/4 170/2/4
f 147/2/4 169/2/4 171/2/4
f 169/5/4 170/5/4 171/5/4
f 170/2/4 164/2/4 172/2/4
f 171/5/4 170/5/4 172/5/4
f 165/5/4 166/5/4 173/5/4
f 155/2/4 165/2/4 173/2/4
f 166/2/4 167/2/4 174/2/4
f 173/5/4 166/5/4 174/5/4
f 167/2/4 168/2/4 174/2/4
f 168/2/4 146/2/4 175/2/4
f 174/2/4 168/2/4 175/2/4
f 175/2/4 146/2/4 176/2/4
f 155/2/4 173/2/4 177/2/4
f 173/2/4 174/2/4 177/2/4
f 174/2/4 175/2/4 177/2/4
f 177/2/4 175/2/4 178/2/4
f 175/5/4 176/5/4 179/5/4
f 178/2/4 175/2/4 179/2/4
f 176/2/4 146/2/4 180/2/4
f 179/5/4 176/5/4 180/5/4
f 179/2/4 180/2/4 181/2/4
f 180/2/4 146/2/4 181/2/4
f 146/7/4 147/7/4 182/7/4
f 181/2/4 146/2/4 182/2/4
f 147/2/4 171/2/4 183/2/4
f 182/7/4 147/7/4 183/7/4
f 171/2/4 172/2/4 183/2/4
f 172/2/4 164/2/4 184/2/4
f 183/2/4 172/2/4 184/2/4
f 179/2/4 181/2/4 185/2/4
f 181/4/4 182/4/4 186/4/4
f 185/2/4 181/2/4 186/2/4
f 182/8/4 183/8/4 187/8/4
f 186/4/4 182/4/4 187/4/4
f 183/4/4 184/4/4 188/4/4
f 187/8/4 183/8/4 188/8/4
f 178/2/4 179/2/4 189/2/4
f 179/2/4 185/2/4 189/2/4
f 189/2/4 185/2/4 190/2/4
f 185/4/4 186/4/4 191/4/4
f 190/2/4 185/2/4 191/2/4
f 186/4/4 187/4/4 191/4/4
f 191/4/4 187/4/4 192/4/4
f 187/1/4 188/1/4 193/1/4
f 192/4/4 187/4/4 193/4/4
f 188/4/4 184/4/4 194/4/4
f 193/1/4 188/1/4 194/1/4
f 192/4/4 193/4/4 195/4/4
f 191/2/4 192/2/4 195/2/4
f 190/2/4 191/2/4 195/2/4
f 193/8/4 194/8/4 196/8/4
f 195/4/4 193/4/4 196/4/4
f 194/4/4 184/4/4 197/4/4
f 196/8/4 194/8/4 197/8/4
f 197/4/4 184/4/4 198/4/4
f 198/4/4 184/4/4 199/4/4
f 196/7/4 197/7/4 200/7/4
f 197/5/4 198/5/4 200/5/4
f 198/2/4 199/2/4 201/2/4
f 200/5/4 198/5/4 201/5/4
f 195/2/4 196/2/4 202/2/4
f 190/2/4 195/2/4 202/2/4
f 202/2/4 196/2/4 203/2/4
f 155/2/4 177/2/4 204/2/4
f 177/5/4 178/5/4 205/5/4
f 204/2/4 177/2/4 205/2/4
f 178/2/4 189/2/4 206/2/4
f 205/5/4 178/5/4 206/5/4
f 189/5/4 190/5/4 207/5/4
f 206/2/4 189/2/4 207/2/4
f 190/2/4 202/2/4 208/2/4
f 207/5/4 190/5/4 208/5/4
f 202/5/4 203/5/4 209/5/4
f 208/2/4 202/2/4 209/2/4
f 203/2/4 196/2/4 210/2/4
f 209/5/4 203/5/4 210/5/4
f 196/7/4 200/7/4 211/7/4
f 210/2/4 196/2/4 211/2/4
f 200/2/4 201/2/4 212/2/4
f 211/7/4 200/7/4 212/7/4
f 201/2/4 199/2/4 213/2/4
f 212/2/4 201/2/4 213/2/4
f 216/2/5 215/2/5 214/2/5
f 217/2/5 215/2/5 216/2/5
f 218/2/5 216/2/5 214/2/5
f 219/6/5 217/6/5 216/6/5
f 219/2/5 216/2/5 218/2/5
f 220/6/5 217/6/5 219/6/5
f 221/2/5 215/2/5 217/2/5
f 221/6/5 217/6/5 220/6/5
f 222/5/5 220/5/5 219/5/5
f 222/5/5 219/5/5 218/5/5
f 223/2/5 221/2/5 220/2/5
f 223/5/5 220/5/5 222/5/5
f 224/2/5 215/2/5 221/2/5
f 224/2/5 221/2/5 223/2/5
f 227/6/5 226/6/5 225/6/5
f 228/6/5 226/6/5 227/6/5
f 229/6/5 226/6/5 228/6/5
f 230/6/5 226/6/5 229/6/5
f 233/2/5 232/2/5 231/2/5
f 234/2/5 232/2/5 233/2/5
f 235/6/6 236/6/6 237/6/6
f 237/6/6 236/6/6 238/6/6
f 238/6/6 236/6/6 239/6/6
f 240/8/6 241/8/6 242/8/6
f 242/8/6 241/8/6 243/8/6
f 246/2/6 247/2/6 250/2/6
f 250/2/6 247/2/6 251/2/6
f 246/2/6 250/2/6 252/2/6
f 250/5/6 251/5/6 252/5/6
f 251/2/6 247/2/6 253/2/6
f 252/5/6 251/5/6 253/5/6
f 244/2/6 245/2/6 254/2/6
f 245/4/6 246/4/6 255/4/6
f 254/2/6 245/2/6 255/2/6
f 254/5/6 255/5/6 256/5/6
f 255/4/6 246/4/6 257/4/6
f 256/5/6 255/5/6 257/5/6
f 248/2/6 249/2/6 258/2/6
f 258/2/6 249/2/6 259/2/6
f 246/2/6 252/2/6 260/2/6
f 252/2/6 253/2/6 260/2/6
f 260/2/6 253/2/6 261/2/6
f 258/5/6 259/5/6 262/5/6
f 248/2/6 258/2/6 262/2/6
f 259/2/6 249/2/6 263/2/6
f 262/5/6 259/5/6 263/5/6
f 260/5/6 261/5/6 264/5/6
f 246/2/6 260/2/6 264/2/6
f 261/2/6 253/2/6 265/2/6
f 264/5/6 261/5/6 265/5/6
f 264/2/6 265/2/6 266/2/6
f 265/2/6 253/2/6 266/2/6
f 266/2/6 253/2/6 267/2/6
f 257/4/6 246/4/6 268/4/6
f 256/2/6 257/2/6 268/2/6
f 268/4/6 246/4/6 269/4/6
f 266/5/6 267/5/6 270/5/6
f 264/2/6 266/2/6 270/2/6
f 267/2/6 253/2/6 271/2/6
f 270/5/6 267/5/6 271/5/6
f 256/2/6 268/2/6 272/2/6
f 272/2/6 268/2/6 273/2/6
f 268/3/6 269/3/6 274/3/6
f 273/2/6 268/2/6 274/2/6
f 269/4/6 246/4/6 275/4/6
f 274/3/6 269/3/6 275/3/6
f 275/4/6 246/4/6 276/4/6
f 256/2/6 272/2/6 277/2/6
f 272/5/6 273/5/6 278/5/6
f 277/2/6 272/2/6 278/2/6
f 273/2/6 274/2/6 279/2/6
f 278/5/6 273/5/6 279/5/6
f 274/2/6 275/2/6 279/2/6
f 275/3/6 276/3/6 280/3/6
f 279/2/6 275/2/6 280/2/6
f 276/4/6 246/4/6 281/4/6
f 280/3/6 276/3/6 281/3/6
f 264/2/6 270/2/6 282/2/6
f 281/4/6 246/4/6 282/4/6
f 246/2/6 264/2/6 282/2/6
f 270/2/6 271/2/6 282/2/6
f 253/2/6 247/2/6 283/2/6
f 282/2/6 271/2/6 283/2/6
f 247/4/6 248/4/6 283/4/6
f 271/2/6 253/2/6 283/2/6
f 248/2/6 262/2/6 284/2/6
f 283/4/6 248/4/6 284/4/6
f 262/2/6 263/2/6 284/2/6
f 263/2/6 249/2/6 285/2/6
f 284/2/6 263/2/6 285/2/6
