# MagicaVoxel @ Ephtracy

# group
g house_painting

# material
mtllib house_painting.mtl
usemtl palette

# normals
vn -1 0 0
vn 1 0 0
vn 0 0 1
vn 0 0 -1
vn 0 -1 0
vn 0 1 0

# texcoords
vt 0.158203 0.5
vt 0.279297 0.5
vt 0.537109 0.5
vt 0.728516 0.5

# verts
v -5.5 0 0.5
v -5.5 0 -0.5
v -5.5 12 0.5
v -5.5 12 -0.5
v 5.5 0 0.5
v 5.5 0 -0.5
v 5.5 12 0.5
v 5.5 12 -0.5
v -5.5 0 0.5
v -5.5 12 0.5
v -4.5 1 0.5
v -4.5 11 0.5
v -3.5 4 0.5
v -3.5 10 0.5
v -2.5 3 0.5
v -2.5 4 0.5
v -2.5 7 0.5
v -2.5 8 0.5
v -2.5 9 0.5
v -1.5 2 0.5
v -1.5 3 0.5
v -1.5 4 0.5
v -1.5 6 0.5
v -1.5 7 0.5
v -1.5 8 0.5
v -1.5 9 0.5
v -0.5 5 0.5
v -0.5 6 0.5
v -0.5 7 0.5
v -0.5 8 0.5
v -0.5 9 0.5
v 0.5 4 0.5
v 0.5 5 0.5
v 0.5 6 0.5
v 0.5 7 0.5
v 0.5 8 0.5
v 1.5 2 0.5
v 1.5 3 0.5
v 1.5 4 0.5
v 1.5 5 0.5
v 1.5 6 0.5
v 1.5 7 0.5
v 2.5 3 0.5
v 2.5 4 0.5
v 2.5 5 0.5
v 2.5 6 0.5
v 2.5 9 0.5
v 3.5 4 0.5
v 3.5 10 0.5
v 4.5 1 0.5
v 4.5 11 0.5
v 5.5 0 0.5
v 5.5 12 0.5
v -5.5 0 -0.5
v -5.5 12 -0.5
v -4.5 1 -0.5
v -4.5 11 -0.5
v -3.5 4 -0.5
v -3.5 10 -0.5
v -2.5 3 -0.5
v -2.5 4 -0.5
v -2.5 7 -0.5
v -2.5 8 -0.5
v -2.5 9 -0.5
v -1.5 2 -0.5
v -1.5 3 -0.5
v -1.5 4 -0.5
v -1.5 6 -0.5
v -1.5 7 -0.5
v -1.5 8 -0.5
v -1.5 9 -0.5
v -0.5 5 -0.5
v -0.5 6 -0.5
v -0.5 7 -0.5
v -0.5 8 -0.5
v -0.5 9 -0.5
v 0.5 4 -0.5
v 0.5 5 -0.5
v 0.5 6 -0.5
v 0.5 7 -0.5
v 0.5 8 -0.5
v 1.5 2 -0.5
v 1.5 3 -0.5
v 1.5 4 -0.5
v 1.5 5 -0.5
v 1.5 6 -0.5
v 1.5 7 -0.5
v 2.5 3 -0.5
v 2.5 4 -0.5
v 2.5 5 -0.5
v 2.5 6 -0.5
v 2.5 9 -0.5
v 3.5 4 -0.5
v 3.5 10 -0.5
v 4.5 1 -0.5
v 4.5 11 -0.5
v 5.5 0 -0.5
v 5.5 12 -0.5
v -5.5 0 0.5
v 5.5 0 0.5
v -5.5 0 -0.5
v 5.5 0 -0.5
v -5.5 12 0.5
v 5.5 12 0.5
v -5.5 12 -0.5
v 5.5 12 -0.5

# faces
f 3/3/1 2/3/1 1/3/1
f 4/3/1 2/3/1 3/3/1
f 5/3/2 6/3/2 7/3/2
f 7/3/2 6/3/2 8/3/2
f 11/3/3 10/3/3 9/3/3
f 12/3/3 10/3/3 11/3/3
f 13/4/3 12/4/3 11/4/3
f 14/4/3 12/4/3 13/4/3
f 15/4/3 13/4/3 11/4/3
f 16/2/3 14/2/3 13/2/3
f 16/4/3 13/4/3 15/4/3
f 17/2/3 14/2/3 16/2/3
f 18/2/3 14/2/3 17/2/3
f 19/2/3 14/2/3 18/2/3
f 20/4/3 15/4/3 11/4/3
f 21/2/3 16/2/3 15/2/3
f 21/4/3 15/4/3 20/4/3
f 22/1/3 17/1/3 16/1/3
f 22/2/3 16/2/3 21/2/3
f 23/1/3 17/1/3 22/1/3
f 24/2/3 18/2/3 17/2/3
f 24/1/3 17/1/3 23/1/3
f 25/1/3 19/1/3 18/1/3
f 25/2/3 18/2/3 24/2/3
f 26/2/3 14/2/3 19/2/3
f 26/1/3 19/1/3 25/1/3
f 27/1/3 23/1/3 22/1/3
f 27/1/3 22/1/3 21/1/3
f 28/2/3 24/2/3 23/2/3
f 28/1/3 23/1/3 27/1/3
f 29/1/3 25/1/3 24/1/3
f 29/2/3 24/2/3 28/2/3
f 30/2/3 26/2/3 25/2/3
f 30/1/3 25/1/3 29/1/3
f 31/2/3 14/2/3 26/2/3
f 31/2/3 26/2/3 30/2/3
f 32/1/3 27/1/3 21/1/3
f 33/2/3 28/2/3 27/2/3
f 33/1/3 27/1/3 32/1/3
f 34/1/3 29/1/3 28/1/3
f 34/2/3 28/2/3 33/2/3
f 35/2/3 30/2/3 29/2/3
f 35/1/3 29/1/3 34/1/3
f 36/1/3 31/1/3 30/1/3
f 36/2/3 30/2/3 35/2/3
f 37/4/3 20/4/3 11/4/3
f 37/2/3 21/2/3 20/2/3
f 38/1/3 32/1/3 21/1/3
f 38/2/3 21/2/3 37/2/3
f 39/2/3 33/2/3 32/2/3
f 39/1/3 32/1/3 38/1/3
f 40/1/3 34/1/3 33/1/3
f 40/2/3 33/2/3 39/2/3
f 41/2/3 35/2/3 34/2/3
f 41/1/3 34/1/3 40/1/3
f 42/1/3 36/1/3 35/1/3
f 42/2/3 35/2/3 41/2/3
f 43/2/3 39/2/3 38/2/3
f 43/4/3 38/4/3 37/4/3
f 44/1/3 40/1/3 39/1/3
f 44/2/3 39/2/3 43/2/3
f 45/2/3 41/2/3 40/2/3
f 45/1/3 40/1/3 44/1/3
f 46/1/3 42/1/3 41/1/3
f 46/2/3 41/2/3 45/2/3
f 47/1/3 31/1/3 36/1/3
f 47/1/3 42/1/3 46/1/3
f 47/1/3 36/1/3 42/1/3
f 47/2/3 14/2/3 31/2/3
f 48/2/3 46/2/3 45/2/3
f 48/4/3 44/4/3 43/4/3
f 48/2/3 47/2/3 46/2/3
f 48/2/3 45/2/3 44/2/3
f 49/4/3 12/4/3 14/4/3
f 49/2/3 47/2/3 48/2/3
f 49/2/3 14/2/3 47/2/3
f 50/3/3 11/3/3 9/3/3
f 50/4/3 48/4/3 43/4/3
f 50/4/3 49/4/3 48/4/3
f 50/4/3 43/4/3 37/4/3
f 50/4/3 37/4/3 11/4/3
f 51/4/3 12/4/3 49/4/3
f 51/4/3 49/4/3 50/4/3
f 51/3/3 10/3/3 12/3/3
f 52/3/3 50/3/3 9/3/3
f 52/3/3 51/3/3 50/3/3
f 53/3/3 10/3/3 51/3/3
f 53/3/3 51/3/3 52/3/3
f 54/3/4 55/3/4 56/3/4
f 56/3/4 55/3/4 57/3/4
f 56/4/4 57/4/4 58/4/4
f 58/4/4 57/4/4 59/4/4
f 56/4/4 58/4/4 60/4/4
f 58/2/4 59/2/4 61/2/4
f 60/4/4 58/4/4 61/4/4
f 61/2/4 59/2/4 62/2/4
f 62/2/4 59/2/4 63/2/4
f 63/2/4 59/2/4 64/2/4
f 56/4/4 60/4/4 65/4/4
f 60/2/4 61/2/4 66/2/4
f 65/4/4 60/4/4 66/4/4
f 61/1/4 62/1/4 67/1/4
f 66/2/4 61/2/4 67/2/4
f 67/1/4 62/1/4 68/1/4
f 62/2/4 63/2/4 69/2/4
f 68/1/4 62/1/4 69/1/4
f 63/1/4 64/1/4 70/1/4
f 69/2/4 63/2/4 70/2/4
f 64/2/4 59/2/4 71/2/4
f 70/1/4 64/1/4 71/1/4
f 67/1/4 68/1/4 72/1/4
f 66/1/4 67/1/4 72/1/4
f 68/2/4 69/2/4 73/2/4
f 72/1/4 68/1/4 73/1/4
f 69/1/4 70/1/4 74/1/4
f 73/2/4 69/2/4 74/2/4
f 70/2/4 71/2/4 75/2/4
f 74/1/4 70/1/4 75/1/4
f 71/2/4 59/2/4 76/2/4
f 75/2/4 71/2/4 76/2/4
f 66/1/4 72/1/4 77/1/4
f 72/2/4 73/2/4 78/2/4
f 77/1/4 72/1/4 78/1/4
f 73/1/4 74/1/4 79/1/4
f 78/2/4 73/2/4 79/2/4
f 74/2/4 75/2/4 80/2/4
f 79/1/4 74/1/4 80/1/4
f 75/1/4 76/1/4 81/1/4
f 80/2/4 75/2/4 81/2/4
f 56/4/4 65/4/4 82/4/4
f 65/2/4 66/2/4 82/2/4
f 66/1/4 77/1/4 83/1/4
f 82/2/4 66/2/4 83/2/4
f 77/2/4 78/2/4 84/2/4
f 83/1/4 77/1/4 84/1/4
f 78/1/4 79/1/4 85/1/4
f 84/2/4 78/2/4 85/2/4
f 79/2/4 80/2/4 86/2/4
f 85/1/4 79/1/4 86/1/4
f 80/1/4 81/1/4 87/1/4
f 86/2/4 80/2/4 87/2/4
f 83/2/4 84/2/4 88/2/4
f 82/4/4 83/4/4 88/4/4
f 84/1/4 85/1/4 89/1/4
f 88/2/4 84/2/4 89/2/4
f 85/2/4 86/2/4 90/2/4
f 89/1/4 85/1/4 90/1/4
f 86/1/4 87/1/4 91/1/4
f 90/2/4 86/2/4 91/2/4
f 81/1/4 76/1/4 92/1/4
f 91/1/4 87/1/4 92/1/4
f 87/1/4 81/1/4 92/1/4
f 76/2/4 59/2/4 92/2/4
f 90/2/4 91/2/4 93/2/4
f 88/4/4 89/4/4 93/4/4
f 91/2/4 92/2/4 93/2/4
f 89/2/4 90/2/4 93/2/4
f 59/4/4 57/4/4 94/4/4
f 93/2/4 92/2/4 94/2/4
f 92/2/4 59/2/4 94/2/4
f 54/3/4 56/3/4 95/3/4
f 88/4/4 93/4/4 95/4/4
f 93/4/4 94/4/4 95/4/4
f 82/4/4 88/4/4 95/4/4
f 56/4/4 82/4/4 95/4/4
f 94/4/4 57/4/4 96/4/4
f 95/4/4 94/4/4 96/4/4
f 57/3/4 55/3/4 96/3/4
f 54/3/4 95/3/4 97/3/4
f 95/3/4 96/3/4 97/3/4
f 96/3/4 55/3/4 98/3/4
f 97/3/4 96/3/4 98/3/4
f 101/3/5 100/3/5 99/3/5
f 102/3/5 100/3/5 101/3/5
f 103/3/6 104/3/6 105/3/6
f 105/3/6 104/3/6 106/3/6
