# MagicaVoxel @ Ephtracy

# group
g lamp

# material
mtllib lamp.mtl
usemtl palette

# normals
vn -1 0 0
vn 1 0 0
vn 0 0 1
vn 0 0 -1
vn 0 -1 0
vn 0 1 0

# texcoords
vt 0.0644531 0.5
vt 0.158203 0.5
vt 0.970703 0.5

# verts
v -3 7 2
v -3 7 -1
v -3 10 2
v -3 10 1
v -3 10 -0
v -3 10 -1
v -3 11 1
v -3 11 -0
v -2 0 2
v -2 0 -1
v -2 1 2
v -2 1 -1
v -2 7 3
v -2 7 2
v -2 7 -1
v -2 7 -2
v -2 10 3
v -2 10 2
v -2 10 1
v -2 10 -0
v -2 10 -1
v -2 10 -2
v -2 11 2
v -2 11 1
v -2 11 -0
v -2 11 -1
v -1 0 3
v -1 0 2
v -1 0 -1
v -1 0 -2
v -1 1 3
v -1 1 2
v -1 1 1
v -1 1 -0
v -1 1 -1
v -1 1 -2
v -1 10 3
v -1 10 2
v -1 10 1
v -1 10 -0
v -1 10 -1
v -1 10 -2
v -1 11 3
v -1 11 2
v -1 11 1
v -1 11 -0
v -1 11 -1
v -1 11 -2
v 0 10 2
v 0 10 1
v 0 10 -0
v 0 10 -1
v 0 11 2
v 0 11 1
v 0 11 -0
v 0 11 -1
v 1 7 2
v 1 7 -1
v 1 10 2
v 1 10 1
v 1 10 -0
v 1 10 -1
v 1 11 1
v 1 11 -0
v -2 7 2
v -2 7 -1
v -2 10 2
v -2 10 1
v -2 10 -0
v -2 10 -1
v -2 11 1
v -2 11 -0
v -1 10 2
v -1 10 1
v -1 10 -0
v -1 10 -1
v -1 11 2
v -1 11 1
v -1 11 -0
v -1 11 -1
v 0 2 1
v 0 2 -0
v 0 10 3
v 0 10 2
v 0 10 1
v 0 10 -0
v 0 10 -1
v 0 10 -2
v 0 11 3
v 0 11 2
v 0 11 1
v 0 11 -0
v 0 11 -1
v 0 11 -2
v 1 0 3
v 1 0 2
v 1 0 -1
v 1 0 -2
v 1 1 3
v 1 1 2
v 1 1 1
v 1 1 -0
v 1 1 -1
v 1 1 -2
v 1 2 1
v 1 2 -0
v 1 7 3
v 1 7 2
v 1 7 -1
v 1 7 -2
v 1 10 3
v 1 10 2
v 1 10 1
v 1 10 -0
v 1 10 -1
v 1 10 -2
v 1 11 2
v 1 11 1
v 1 11 -0
v 1 11 -1
v 2 0 2
v 2 0 -1
v 2 1 2
v 2 1 -1
v 2 7 2
v 2 7 -1
v 2 10 2
v 2 10 1
v 2 10 -0
v 2 10 -1
v 2 11 1
v 2 11 -0
v -2 7 3
v -2 10 3
v -1 0 3
v -1 1 3
v -1 10 3
v -1 11 3
v 0 10 3
v 0 11 3
v 1 0 3
v 1 1 3
v 1 7 3
v 1 10 3
v -3 7 2
v -3 10 2
v -2 0 2
v -2 1 2
v -2 7 2
v -2 10 2
v -2 11 2
v -1 0 2
v -1 1 2
v -1 10 2
v -1 11 2
v 0 10 2
v 0 11 2
v 1 0 2
v 1 1 2
v 1 7 2
v 1 10 2
v 1 11 2
v 2 0 2
v 2 1 2
v 2 7 2
v 2 10 2
v -3 10 1
v -3 11 1
v -2 10 1
v -2 11 1
v -1 1 1
v -1 10 1
v -1 11 1
v 0 2 1
v 0 10 1
v 0 11 1
v 1 1 1
v 1 2 1
v 1 10 1
v 1 11 1
v 2 10 1
v 2 11 1
v -2 10 -0
v -2 11 -0
v -1 10 -0
v -1 11 -0
v 0 10 -0
v 0 11 -0
v 1 10 -0
v 1 11 -0
v -2 7 -1
v -2 10 -1
v -1 10 -1
v -1 11 -1
v 0 10 -1
v 0 11 -1
v 1 7 -1
v 1 10 -1
v -2 7 2
v -2 10 2
v -1 10 2
v -1 11 2
v 0 10 2
v 0 11 2
v 1 7 2
v 1 10 2
v -2 10 1
v -2 11 1
v -1 10 1
v -1 11 1
v 0 10 1
v 0 11 1
v 1 10 1
v 1 11 1
v -3 10 -0
v -3 11 -0
v -2 10 -0
v -2 11 -0
v -1 1 -0
v -1 10 -0
v -1 11 -0
v 0 2 -0
v 0 10 -0
v 0 11 -0
v 1 1 -0
v 1 2 -0
v 1 10 -0
v 1 11 -0
v 2 10 -0
v 2 11 -0
v -3 7 -1
v -3 10 -1
v -2 0 -1
v -2 1 -1
v -2 7 -1
v -2 10 -1
v -2 11 -1
v -1 0 -1
v -1 1 -1
v -1 10 -1
v -1 11 -1
v 0 10 -1
v 0 11 -1
v 1 0 -1
v 1 1 -1
v 1 7 -1
v 1 10 -1
v 1 11 -1
v 2 0 -1
v 2 1 -1
v 2 7 -1
v 2 10 -1
v -2 7 -2
v -2 10 -2
v -1 0 -2
v -1 1 -2
v -1 10 -2
v -1 11 -2
v 0 10 -2
v 0 11 -2
v 1 0 -2
v 1 1 -2
v 1 7 -2
v 1 10 -2
v -1 0 3
v 1 0 3
v -2 0 2
v -1 0 2
v 1 0 2
v 2 0 2
v -2 0 -1
v -1 0 -1
v 1 0 -1
v 2 0 -1
v -1 0 -2
v 1 0 -2
v -2 7 3
v 1 7 3
v -3 7 2
v -2 7 2
v 1 7 2
v 2 7 2
v -3 7 -1
v -2 7 -1
v 1 7 -1
v 2 7 -1
v -2 7 -2
v 1 7 -2
v -2 10 2
v -1 10 2
v 0 10 2
v 1 10 2
v -2 10 1
v -1 10 1
v 0 10 1
v 1 10 1
v -2 10 -0
v -1 10 -0
v 0 10 -0
v 1 10 -0
v -2 10 -1
v -1 10 -1
v 0 10 -1
v 1 10 -1
v -1 1 3
v 1 1 3
v -2 1 2
v -1 1 2
v 1 1 2
v 2 1 2
v -1 1 1
v 1 1 1
v -1 1 -0
v 1 1 -0
v -2 1 -1
v -1 1 -1
v 1 1 -1
v 2 1 -1
v -1 1 -2
v 1 1 -2
v 0 2 1
v 1 2 1
v 0 2 -0
v 1 2 -0
v -2 10 3
v -1 10 3
v 0 10 3
v 1 10 3
v -3 10 2
v -2 10 2
v -1 10 2
v 0 10 2
v 1 10 2
v 2 10 2
v -3 10 1
v -2 10 1
v 1 10 1
v 2 10 1
v -3 10 -0
v -2 10 -0
v 1 10 -0
v 2 10 -0
v -3 10 -1
v -2 10 -1
v -1 10 -1
v 0 10 -1
v 1 10 -1
v 2 10 -1
v -2 10 -2
v -1 10 -2
v 0 10 -2
v 1 10 -2
v -1 11 3
v 0 11 3
v -2 11 2
v -1 11 2
v 0 11 2
v 1 11 2
v -3 11 1
v -2 11 1
v -1 11 1
v 0 11 1
v 1 11 1
v 2 11 1
v -3 11 -0
v -2 11 -0
v -1 11 -0
v 0 11 -0
v 1 11 -0
v 2 11 -0
v -2 11 -1
v -1 11 -1
v 0 11 -1
v 1 11 -1
v -1 11 -2
v 0 11 -2

# faces
f 3/2/1 2/2/1 1/2/1
f 4/2/1 2/2/1 3/2/1
f 5/2/1 2/2/1 4/2/1
f 6/2/1 2/2/1 5/2/1
f 7/2/1 5/2/1 4/2/1
f 8/2/1 5/2/1 7/2/1
f 11/1/1 10/1/1 9/1/1
f 12/1/1 10/1/1 11/1/1
f 17/2/1 14/2/1 13/2/1
f 18/2/1 14/2/1 17/2/1
f 21/2/1 16/2/1 15/2/1
f 22/2/1 16/2/1 21/2/1
f 23/2/1 19/2/1 18/2/1
f 24/2/1 19/2/1 23/2/1
f 25/2/1 21/2/1 20/2/1
f 26/2/1 21/2/1 25/2/1
f 31/1/1 28/1/1 27/1/1
f 32/1/1 28/1/1 31/1/1
f 35/1/1 30/1/1 29/1/1
f 36/1/1 30/1/1 35/1/1
f 39/3/1 34/3/1 33/3/1
f 40/3/1 34/3/1 39/3/1
f 43/2/1 38/2/1 37/2/1
f 44/2/1 38/2/1 43/2/1
f 45/3/1 40/3/1 39/3/1
f 46/3/1 40/3/1 45/3/1
f 47/2/1 42/2/1 41/2/1
f 48/2/1 42/2/1 47/2/1
f 53/2/1 50/2/1 49/2/1
f 54/2/1 50/2/1 53/2/1
f 55/2/1 52/2/1 51/2/1
f 56/2/1 52/2/1 55/2/1
f 59/2/1 58/2/1 57/2/1
f 60/2/1 58/2/1 59/2/1
f 61/2/1 58/2/1 60/2/1
f 62/2/1 58/2/1 61/2/1
f 63/2/1 61/2/1 60/2/1
f 64/2/1 61/2/1 63/2/1
f 65/2/2 66/2/2 67/2/2
f 67/2/2 66/2/2 68/2/2
f 68/2/2 66/2/2 69/2/2
f 69/2/2 66/2/2 70/2/2
f 68/2/2 69/2/2 71/2/2
f 71/2/2 69/2/2 72/2/2
f 73/2/2 74/2/2 77/2/2
f 77/2/2 74/2/2 78/2/2
f 75/2/2 76/2/2 79/2/2
f 79/2/2 76/2/2 80/2/2
f 81/3/2 82/3/2 85/3/2
f 85/3/2 82/3/2 86/3/2
f 83/2/2 84/2/2 89/2/2
f 89/2/2 84/2/2 90/2/2
f 85/3/2 86/3/2 91/3/2
f 91/3/2 86/3/2 92/3/2
f 87/2/2 88/2/2 93/2/2
f 93/2/2 88/2/2 94/2/2
f 95/1/2 96/1/2 99/1/2
f 99/1/2 96/1/2 100/1/2
f 97/1/2 98/1/2 103/1/2
f 103/1/2 98/1/2 104/1/2
f 101/3/2 102/3/2 105/3/2
f 105/3/2 102/3/2 106/3/2
f 107/2/2 108/2/2 111/2/2
f 111/2/2 108/2/2 112/2/2
f 109/2/2 110/2/2 115/2/2
f 115/2/2 110/2/2 116/2/2
f 112/2/2 113/2/2 117/2/2
f 117/2/2 113/2/2 118/2/2
f 114/2/2 115/2/2 119/2/2
f 119/2/2 115/2/2 120/2/2
f 121/1/2 122/1/2 123/1/2
f 123/1/2 122/1/2 124/1/2
f 125/2/2 126/2/2 127/2/2
f 127/2/2 126/2/2 128/2/2
f 128/2/2 126/2/2 129/2/2
f 129/2/2 126/2/2 130/2/2
f 128/2/2 129/2/2 131/2/2
f 131/2/2 129/2/2 132/2/2
f 137/2/3 134/2/3 133/2/3
f 139/2/3 137/2/3 133/2/3
f 139/2/3 138/2/3 137/2/3
f 140/2/3 138/2/3 139/2/3
f 141/1/3 136/1/3 135/1/3
f 142/1/3 136/1/3 141/1/3
f 143/2/3 139/2/3 133/2/3
f 144/2/3 139/2/3 143/2/3
f 149/2/3 146/2/3 145/2/3
f 150/2/3 146/2/3 149/2/3
f 152/1/3 148/1/3 147/1/3
f 153/1/3 148/1/3 152/1/3
f 154/2/3 151/2/3 150/2/3
f 155/2/3 151/2/3 154/2/3
f 161/2/3 157/2/3 156/2/3
f 162/2/3 157/2/3 161/2/3
f 163/1/3 159/1/3 158/1/3
f 164/1/3 159/1/3 163/1/3
f 165/2/3 161/2/3 160/2/3
f 166/2/3 161/2/3 165/2/3
f 169/2/3 168/2/3 167/2/3
f 170/2/3 168/2/3 169/2/3
f 174/3/3 172/3/3 171/3/3
f 174/3/3 173/3/3 172/3/3
f 175/3/3 173/3/3 174/3/3
f 176/3/3 173/3/3 175/3/3
f 177/3/3 174/3/3 171/3/3
f 178/3/3 174/3/3 177/3/3
f 181/2/3 180/2/3 179/2/3
f 182/2/3 180/2/3 181/2/3
f 185/2/3 184/2/3 183/2/3
f 186/2/3 184/2/3 185/2/3
f 189/2/3 188/2/3 187/2/3
f 190/2/3 188/2/3 189/2/3
f 193/2/3 192/2/3 191/2/3
f 195/2/3 193/2/3 191/2/3
f 195/2/3 194/2/3 193/2/3
f 196/2/3 194/2/3 195/2/3
f 197/2/3 195/2/3 191/2/3
f 198/2/3 195/2/3 197/2/3
f 199/2/4 200/2/4 201/2/4
f 199/2/4 201/2/4 203/2/4
f 201/2/4 202/2/4 203/2/4
f 203/2/4 202/2/4 204/2/4
f 199/2/4 203/2/4 205/2/4
f 205/2/4 203/2/4 206/2/4
f 207/2/4 208/2/4 209/2/4
f 209/2/4 208/2/4 210/2/4
f 211/2/4 212/2/4 213/2/4
f 213/2/4 212/2/4 214/2/4
f 215/2/4 216/2/4 217/2/4
f 217/2/4 216/2/4 218/2/4
f 219/3/4 220/3/4 222/3/4
f 220/3/4 221/3/4 222/3/4
f 222/3/4 221/3/4 223/3/4
f 223/3/4 221/3/4 224/3/4
f 219/3/4 222/3/4 225/3/4
f 225/3/4 222/3/4 226/3/4
f 227/2/4 228/2/4 229/2/4
f 229/2/4 228/2/4 230/2/4
f 231/2/4 232/2/4 235/2/4
f 235/2/4 232/2/4 236/2/4
f 233/1/4 234/1/4 238/1/4
f 238/1/4 234/1/4 239/1/4
f 236/2/4 237/2/4 240/2/4
f 240/2/4 237/2/4 241/2/4
f 242/2/4 243/2/4 247/2/4
f 247/2/4 243/2/4 248/2/4
f 244/1/4 245/1/4 249/1/4
f 249/1/4 245/1/4 250/1/4
f 246/2/4 247/2/4 251/2/4
f 251/2/4 247/2/4 252/2/4
f 253/2/4 254/2/4 257/2/4
f 253/2/4 257/2/4 259/2/4
f 257/2/4 258/2/4 259/2/4
f 259/2/4 258/2/4 260/2/4
f 255/1/4 256/1/4 261/1/4
f 261/1/4 256/1/4 262/1/4
f 253/2/4 259/2/4 263/2/4
f 263/2/4 259/2/4 264/2/4
f 268/1/5 266/1/5 265/1/5
f 269/1/5 266/1/5 268/1/5
f 271/1/5 268/1/5 267/1/5
f 271/1/5 270/1/5 269/1/5
f 271/1/5 269/1/5 268/1/5
f 272/1/5 270/1/5 271/1/5
f 273/1/5 270/1/5 272/1/5
f 274/1/5 270/1/5 273/1/5
f 275/1/5 273/1/5 272/1/5
f 276/1/5 273/1/5 275/1/5
f 280/2/5 278/2/5 277/2/5
f 281/2/5 278/2/5 280/2/5
f 283/2/5 280/2/5 279/2/5
f 284/2/5 280/2/5 283/2/5
f 285/2/5 282/2/5 281/2/5
f 286/2/5 282/2/5 285/2/5
f 287/2/5 285/2/5 284/2/5
f 288/2/5 285/2/5 287/2/5
f 293/2/5 290/2/5 289/2/5
f 294/2/5 290/2/5 293/2/5
f 295/2/5 292/2/5 291/2/5
f 296/2/5 292/2/5 295/2/5
f 301/2/5 298/2/5 297/2/5
f 302/2/5 298/2/5 301/2/5
f 303/2/5 300/2/5 299/2/5
f 304/2/5 300/2/5 303/2/5
f 305/1/6 306/1/6 308/1/6
f 308/1/6 306/1/6 309/1/6
f 307/1/6 308/1/6 311/1/6
f 309/1/6 310/1/6 311/1/6
f 308/1/6 309/1/6 311/1/6
f 311/1/6 310/1/6 312/1/6
f 307/1/6 311/1/6 313/1/6
f 312/1/6 310/1/6 314/1/6
f 307/1/6 313/1/6 315/1/6
f 313/1/6 314/1/6 315/1/6
f 315/1/6 314/1/6 316/1/6
f 314/1/6 310/1/6 317/1/6
f 316/1/6 314/1/6 317/1/6
f 317/1/6 310/1/6 318/1/6
f 316/1/6 317/1/6 319/1/6
f 319/1/6 317/1/6 320/1/6
f 321/3/6 322/3/6 323/3/6
f 323/3/6 322/3/6 324/3/6
f 325/2/6 326/2/6 330/2/6
f 330/2/6 326/2/6 331/2/6
f 327/2/6 328/2/6 332/2/6
f 332/2/6 328/2/6 333/2/6
f 329/2/6 330/2/6 335/2/6
f 335/2/6 330/2/6 336/2/6
f 333/2/6 334/2/6 337/2/6
f 337/2/6 334/2/6 338/2/6
f 339/2/6 340/2/6 343/2/6
f 343/2/6 340/2/6 344/2/6
f 341/2/6 342/2/6 347/2/6
f 347/2/6 342/2/6 348/2/6
f 344/2/6 345/2/6 349/2/6
f 349/2/6 345/2/6 350/2/6
f 346/2/6 347/2/6 351/2/6
f 351/2/6 347/2/6 352/2/6
f 353/2/6 354/2/6 356/2/6
f 356/2/6 354/2/6 357/2/6
f 355/2/6 356/2/6 360/2/6
f 360/2/6 356/2/6 361/2/6
f 357/2/6 358/2/6 362/2/6
f 362/2/6 358/2/6 363/2/6
f 359/2/6 360/2/6 365/2/6
f 365/2/6 360/2/6 366/2/6
f 361/3/6 362/3/6 367/3/6
f 367/3/6 362/3/6 368/3/6
f 363/2/6 364/2/6 369/2/6
f 369/2/6 364/2/6 370/2/6
f 366/2/6 367/2/6 371/2/6
f 371/2/6 367/2/6 372/2/6
f 368/2/6 369/2/6 373/2/6
f 373/2/6 369/2/6 374/2/6
f 372/2/6 373/2/6 375/2/6
f 375/2/6 373/2/6 376/2/6
