# MagicaVoxel @ Ephtracy

# group
g truck

# material
mtllib truck.mtl
usemtl palette

# normals
vn -1 0 0
vn 1 0 0
vn 0 0 1
vn 0 0 -1
vn 0 -1 0
vn 0 1 0

# texcoords
vt 0.0214844 0.5
vt 0.845703 0.5
vt 0.970703 0.5
vt 0.986328 0.5
vt 0.990234 0.5
vt 0.994141 0.5

# verts
v -7.5 2 4.5
v -7.5 2 1.5
v -7.5 2 -0.5
v -7.5 2 -3.5
v -7.5 3 4.5
v -7.5 3 1.5
v -7.5 3 -0.5
v -7.5 3 -3.5
v -6.5 2 1.5
v -6.5 2 -0.5
v -6.5 3 3.5
v -6.5 3 1.5
v -6.5 3 -0.5
v -6.5 3 -2.5
v -6.5 4 4.5
v -6.5 4 3.5
v -6.5 4 -2.5
v -6.5 4 -3.5
v -6.5 7 4.5
v -6.5 7 -3.5
v -5.5 3 4.5
v -5.5 3 3.5
v -5.5 3 -2.5
v -5.5 3 -3.5
v -5.5 4 4.5
v -5.5 4 3.5
v -5.5 4 -2.5
v -5.5 4 -3.5
v -4.5 0 4.5
v -4.5 0 3.5
v -4.5 0 -1.5
v -4.5 0 -3.5
v -4.5 2 5.5
v -4.5 2 4.5
v -4.5 2 3.5
v -4.5 2 -1.5
v -4.5 2 -3.5
v -4.5 2 -4.5
v -4.5 4 5.5
v -4.5 4 4.5
v -4.5 4 -3.5
v -4.5 4 -4.5
v -1.5 1 5.5
v -1.5 1 4.5
v -1.5 1 -3.5
v -1.5 1 -4.5
v -1.5 3 5.5
v -1.5 3 4.5
v -1.5 3 -3.5
v -1.5 3 -4.5
v -0.5 3 2.5
v -0.5 3 -1.5
v -0.5 4 3.5
v -0.5 4 2.5
v -0.5 4 -1.5
v -0.5 4 -2.5
v -0.5 5 3.5
v -0.5 5 -2.5
v -0.5 6 4.5
v -0.5 6 3.5
v -0.5 6 -2.5
v -0.5 6 -3.5
v -0.5 7 3.5
v -0.5 7 -2.5
v -0.5 8 4.5
v -0.5 8 -3.5
v 1.5 0 4.5
v 1.5 0 3.5
v 1.5 0 -1.5
v 1.5 0 -3.5
v 1.5 2 5.5
v 1.5 2 4.5
v 1.5 2 3.5
v 1.5 2 -1.5
v 1.5 2 -3.5
v 1.5 2 -4.5
v 1.5 3 5.5
v 1.5 3 4.5
v 1.5 3 -3.5
v 1.5 3 -4.5
v 3.5 4 5.5
v 3.5 4 4.5
v 3.5 4 -3.5
v 3.5 4 -4.5
v 3.5 5 4.5
v 3.5 5 -3.5
v 3.5 6 5.5
v 3.5 6 4.5
v 3.5 6 -3.5
v 3.5 6 -4.5
v -5.5 3 2.5
v -5.5 3 -1.5
v -5.5 4 3.5
v -5.5 4 2.5
v -5.5 4 -1.5
v -5.5 4 -2.5
v -5.5 6 4.5
v -5.5 6 3.5
v -5.5 6 -2.5
v -5.5 6 -3.5
v -5.5 7 4.5
v -5.5 7 -3.5
v -3.5 2 5.5
v -3.5 2 4.5
v -3.5 2 -3.5
v -3.5 2 -4.5
v -3.5 3 5.5
v -3.5 3 4.5
v -3.5 3 -3.5
v -3.5 3 -4.5
v -1.5 0 4.5
v -1.5 0 3.5
v -1.5 0 -1.5
v -1.5 0 -3.5
v -1.5 1 4.5
v -1.5 1 -3.5
v -1.5 2 4.5
v -1.5 2 3.5
v -1.5 2 -1.5
v -1.5 2 -3.5
v -0.5 1 5.5
v -0.5 1 4.5
v -0.5 1 -3.5
v -0.5 1 -4.5
v -0.5 2 4.5
v -0.5 2 -3.5
v -0.5 4 5.5
v -0.5 4 4.5
v -0.5 4 -3.5
v -0.5 4 -4.5
v 4.5 0 4.5
v 4.5 0 3.5
v 4.5 0 -1.5
v 4.5 0 -3.5
v 4.5 2 5.5
v 4.5 2 4.5
v 4.5 2 3.5
v 4.5 2 -1.5
v 4.5 2 -3.5
v 4.5 2 -4.5
v 4.5 3 5.5
v 4.5 3 4.5
v 4.5 3 -3.5
v 4.5 3 -4.5
v 4.5 4 5.5
v 4.5 4 4.5
v 4.5 4 -3.5
v 4.5 4 -4.5
v 4.5 5 4.5
v 4.5 5 3.5
v 4.5 5 -2.5
v 4.5 5 -3.5
v 4.5 6 5.5
v 4.5 6 4.5
v 4.5 6 -3.5
v 4.5 6 -4.5
v 4.5 7 3.5
v 4.5 7 -2.5
v 4.5 8 4.5
v 4.5 8 -3.5
v 6.5 3 4.5
v 6.5 3 -3.5
v 6.5 4 4.5
v 6.5 4 3.5
v 6.5 4 -2.5
v 6.5 4 -3.5
v 6.5 5 4.5
v 6.5 5 3.5
v 6.5 5 -2.5
v 6.5 5 -3.5
v 7.5 2 4.5
v 7.5 2 -3.5
v 7.5 3 4.5
v 7.5 3 -3.5
v -4.5 2 5.5
v -4.5 4 5.5
v -3.5 2 5.5
v -3.5 3 5.5
v -1.5 1 5.5
v -1.5 3 5.5
v -0.5 1 5.5
v -0.5 4 5.5
v 1.5 2 5.5
v 1.5 3 5.5
v 3.5 4 5.5
v 3.5 6 5.5
v 4.5 2 5.5
v 4.5 3 5.5
v 4.5 4 5.5
v 4.5 6 5.5
v -7.5 2 4.5
v -7.5 3 4.5
v -6.5 4 4.5
v -6.5 7 4.5
v -5.5 2 4.5
v -5.5 3 4.5
v -5.5 4 4.5
v -5.5 6 4.5
v -5.5 7 4.5
v -4.5 0 4.5
v -4.5 2 4.5
v -4.5 4 4.5
v -3.5 1 4.5
v -3.5 2 4.5
v -3.5 3 4.5
v -2.5 1 4.5
v -2.5 2 4.5
v -1.5 0 4.5
v -1.5 1 4.5
v -1.5 3 4.5
v -0.5 2 4.5
v -0.5 4 4.5
v -0.5 6 4.5
v -0.5 8 4.5
v 0.5 5 4.5
v 0.5 7 4.5
v 1.5 0 4.5
v 1.5 2 4.5
v 1.5 3 4.5
v 2.5 1 4.5
v 2.5 2 4.5
v 3.5 1 4.5
v 3.5 2 4.5
v 3.5 4 4.5
v 3.5 5 4.5
v 3.5 6 4.5
v 3.5 7 4.5
v 4.5 0 4.5
v 4.5 2 4.5
v 4.5 3 4.5
v 4.5 4 4.5
v 4.5 5 4.5
v 4.5 6 4.5
v 4.5 8 4.5
v 5.5 4 4.5
v 5.5 5 4.5
v 6.5 2 4.5
v 6.5 3 4.5
v 6.5 4 4.5
v 6.5 5 4.5
v 7.5 2 4.5
v 7.5 3 4.5
v -6.5 3 3.5
v -6.5 4 3.5
v -5.5 3 3.5
v -5.5 4 3.5
v -7.5 2 -0.5
v -7.5 3 -0.5
v -6.5 2 -0.5
v -6.5 3 -0.5
v -5.5 3 -1.5
v -5.5 4 -1.5
v -4.5 0 -1.5
v -4.5 2 -1.5
v -1.5 0 -1.5
v -1.5 2 -1.5
v -0.5 3 -1.5
v -0.5 4 -1.5
v 1.5 0 -1.5
v 1.5 2 -1.5
v 4.5 0 -1.5
v 4.5 2 -1.5
v -5.5 4 -2.5
v -5.5 6 -2.5
v -0.5 4 -2.5
v -0.5 5 -2.5
v -0.5 6 -2.5
v -1.5 1 -3.5
v -1.5 2 -3.5
v -0.5 1 -3.5
v -0.5 2 -3.5
v -1.5 1 4.5
v -1.5 2 4.5
v -0.5 1 4.5
v -0.5 2 4.5
v -5.5 4 3.5
v -5.5 6 3.5
v -4.5 0 3.5
v -4.5 2 3.5
v -3.5 1 3.5
v -3.5 2 3.5
v -2.5 1 3.5
v -2.5 2 3.5
v -1.5 0 3.5
v -1.5 2 3.5
v -0.5 4 3.5
v -0.5 5 3.5
v -0.5 6 3.5
v 1.5 0 3.5
v 1.5 2 3.5
v 2.5 1 3.5
v 2.5 2 3.5
v 3.5 1 3.5
v 3.5 2 3.5
v 4.5 0 3.5
v 4.5 2 3.5
v -5.5 3 2.5
v -5.5 4 2.5
v -0.5 3 2.5
v -0.5 4 2.5
v -7.5 2 1.5
v -7.5 3 1.5
v -6.5 2 1.5
v -6.5 3 1.5
v -6.5 3 -2.5
v -6.5 4 -2.5
v -5.5 3 -2.5
v -5.5 4 -2.5
v -7.5 2 -3.5
v -7.5 3 -3.5
v -6.5 4 -3.5
v -6.5 7 -3.5
v -5.5 2 -3.5
v -5.5 3 -3.5
v -5.5 4 -3.5
v -5.5 6 -3.5
v -5.5 7 -3.5
v -4.5 0 -3.5
v -4.5 2 -3.5
v -4.5 4 -3.5
v -3.5 1 -3.5
v -3.5 2 -3.5
v -3.5 3 -3.5
v -2.5 1 -3.5
v -2.5 2 -3.5
v -1.5 0 -3.5
v -1.5 1 -3.5
v -1.5 3 -3.5
v -0.5 2 -3.5
v -0.5 4 -3.5
v -0.5 6 -3.5
v -0.5 8 -3.5
v 0.5 5 -3.5
v 0.5 7 -3.5
v 1.5 0 -3.5
v 1.5 2 -3.5
v 1.5 3 -3.5
v 2.5 1 -3.5
v 2.5 2 -3.5
v 3.5 1 -3.5
v 3.5 2 -3.5
v 3.5 4 -3.5
v 3.5 5 -3.5
v 3.5 6 -3.5
v 3.5 7 -3.5
v 4.5 0 -3.5
v 4.5 2 -3.5
v 4.5 3 -3.5
v 4.5 4 -3.5
v 4.5 5 -3.5
v 4.5 6 -3.5
v 4.5 8 -3.5
v 5.5 4 -3.5
v 5.5 5 -3.5
v 6.5 2 -3.5
v 6.5 3 -3.5
v 6.5 4 -3.5
v 6.5 5 -3.5
v 7.5 2 -3.5
v 7.5 3 -3.5
v -4.5 2 -4.5
v -4.5 4 -4.5
v -3.5 2 -4.5
v -3.5 3 -4.5
v -1.5 1 -4.5
v -1.5 3 -4.5
v -0.5 1 -4.5
v -0.5 4 -4.5
v 1.5 2 -4.5
v 1.5 3 -4.5
v 3.5 4 -4.5
v 3.5 6 -4.5
v 4.5 2 -4.5
v 4.5 3 -4.5
v 4.5 4 -4.5
v 4.5 6 -4.5
v -4.5 0 4.5
v -1.5 0 4.5
v 1.5 0 4.5
v 4.5 0 4.5
v -4.5 0 3.5
v -1.5 0 3.5
v 1.5 0 3.5
v 4.5 0 3.5
v -4.5 0 -1.5
v -1.5 0 -1.5
v 1.5 0 -1.5
v 4.5 0 -1.5
v -4.5 0 -3.5
v -1.5 0 -3.5
v 1.5 0 -3.5
v 4.5 0 -3.5
v -1.5 1 5.5
v -0.5 1 5.5
v -1.5 1 4.5
v -0.5 1 4.5
v -1.5 1 -3.5
v -0.5 1 -3.5
v -1.5 1 -4.5
v -0.5 1 -4.5
v -4.5 2 5.5
v -3.5 2 5.5
v 1.5 2 5.5
v 4.5 2 5.5
v -7.5 2 4.5
v -5.5 2 4.5
v -4.5 2 4.5
v -3.5 2 4.5
v -1.5 2 4.5
v -0.5 2 4.5
v 1.5 2 4.5
v 2.5 2 4.5
v 3.5 2 4.5
v 4.5 2 4.5
v 6.5 2 4.5
v 7.5 2 4.5
v -4.5 2 3.5
v -3.5 2 3.5
v -2.5 2 3.5
v -1.5 2 3.5
v 1.5 2 3.5
v 2.5 2 3.5
v 3.5 2 3.5
v 4.5 2 3.5
v -7.5 2 1.5
v -6.5 2 1.5
v -5.5 2 1.5
v -7.5 2 -0.5
v -6.5 2 -0.5
v -5.5 2 -0.5
v -4.5 2 -1.5
v -1.5 2 -1.5
v 1.5 2 -1.5
v 4.5 2 -1.5
v -7.5 2 -3.5
v -5.5 2 -3.5
v -4.5 2 -3.5
v -3.5 2 -3.5
v -1.5 2 -3.5
v -0.5 2 -3.5
v 1.5 2 -3.5
v 2.5 2 -3.5
v 3.5 2 -3.5
v 4.5 2 -3.5
v 6.5 2 -3.5
v 7.5 2 -3.5
v -4.5 2 -4.5
v -3.5 2 -4.5
v 1.5 2 -4.5
v 4.5 2 -4.5
v -3.5 3 5.5
v -1.5 3 5.5
v -3.5 3 4.5
v -1.5 3 4.5
v -3.5 3 -3.5
v -1.5 3 -3.5
v -3.5 3 -4.5
v -1.5 3 -4.5
v 3.5 4 5.5
v 4.5 4 5.5
v -6.5 4 4.5
v -5.5 4 4.5
v 3.5 4 4.5
v 4.5 4 4.5
v -6.5 4 3.5
v -5.5 4 3.5
v -6.5 4 -2.5
v -5.5 4 -2.5
v -6.5 4 -3.5
v -5.5 4 -3.5
v 3.5 4 -3.5
v 4.5 4 -3.5
v 3.5 4 -4.5
v 4.5 4 -4.5
v 1.5 3 5.5
v 4.5 3 5.5
v -7.5 3 4.5
v -5.5 3 4.5
v 1.5 3 4.5
v 4.5 3 4.5
v 6.5 3 4.5
v 7.5 3 4.5
v -6.5 3 3.5
v -5.5 3 3.5
v -5.5 3 2.5
v -0.5 3 2.5
v -7.5 3 1.5
v -6.5 3 1.5
v -7.5 3 -0.5
v -6.5 3 -0.5
v -5.5 3 -1.5
v -0.5 3 -1.5
v -6.5 3 -2.5
v -5.5 3 -2.5
v -7.5 3 -3.5
v -5.5 3 -3.5
v 1.5 3 -3.5
v 4.5 3 -3.5
v 6.5 3 -3.5
v 7.5 3 -3.5
v 1.5 3 -4.5
v 4.5 3 -4.5
v -4.5 4 5.5
v -0.5 4 5.5
v -4.5 4 4.5
v -0.5 4 4.5
v -5.5 4 3.5
v -0.5 4 3.5
v -5.5 4 2.5
v -0.5 4 2.5
v -5.5 4 -1.5
v -0.5 4 -1.5
v -5.5 4 -2.5
v -0.5 4 -2.5
v -4.5 4 -3.5
v -0.5 4 -3.5
v -4.5 4 -4.5
v -0.5 4 -4.5
v 4.5 5 4.5
v 5.5 5 4.5
v 6.5 5 4.5
v 4.5 5 3.5
v 5.5 5 3.5
v 6.5 5 3.5
v 4.5 5 -2.5
v 5.5 5 -2.5
v 6.5 5 -2.5
v 4.5 5 -3.5
v 5.5 5 -3.5
v 6.5 5 -3.5
v 3.5 6 5.5
v 4.5 6 5.5
v -5.5 6 4.5
v -0.5 6 4.5
v 3.5 6 4.5
v 4.5 6 4.5
v -5.5 6 3.5
v -0.5 6 3.5
v -5.5 6 -2.5
v -0.5 6 -2.5
v -5.5 6 -3.5
v -0.5 6 -3.5
v 3.5 6 -3.5
v 4.5 6 -3.5
v 3.5 6 -4.5
v 4.5 6 -4.5
v -6.5 7 4.5
v -5.5 7 4.5
v -6.5 7 -3.5
v -5.5 7 -3.5
v -0.5 8 4.5
v 4.5 8 4.5
v -0.5 8 -3.5
v 4.5 8 -3.5

# faces
f 5/4/1 2/4/1 1/4/1
f 6/4/1 2/4/1 5/4/1
f 7/4/1 4/4/1 3/4/1
f 8/4/1 4/4/1 7/4/1
f 12/2/1 10/2/1 9/2/1
f 13/2/1 10/2/1 12/2/1
f 16/2/1 12/2/1 11/2/1
f 16/2/1 14/2/1 13/2/1
f 16/2/1 13/2/1 12/2/1
f 17/2/1 14/2/1 16/2/1
f 19/2/1 16/2/1 15/2/1
f 19/2/1 18/2/1 17/2/1
f 19/2/1 17/2/1 16/2/1
f 20/2/1 18/2/1 19/2/1
f 25/2/1 22/2/1 21/2/1
f 26/2/1 22/2/1 25/2/1
f 27/2/1 24/2/1 23/2/1
f 28/2/1 24/2/1 27/2/1
f 34/5/1 30/5/1 29/5/1
f 35/5/1 30/5/1 34/5/1
f 36/5/1 32/5/1 31/5/1
f 37/5/1 32/5/1 36/5/1
f 39/2/1 34/2/1 33/2/1
f 40/2/1 34/2/1 39/2/1
f 41/2/1 38/2/1 37/2/1
f 42/2/1 38/2/1 41/2/1
f 47/2/1 44/2/1 43/2/1
f 48/2/1 44/2/1 47/2/1
f 49/2/1 46/2/1 45/2/1
f 50/2/1 46/2/1 49/2/1
f 54/2/1 52/2/1 51/2/1
f 55/2/1 52/2/1 54/2/1
f 57/2/1 54/2/1 53/2/1
f 57/2/1 56/2/1 55/2/1
f 57/2/1 55/2/1 54/2/1
f 58/2/1 56/2/1 57/2/1
f 60/6/1 58/6/1 57/6/1
f 61/6/1 58/6/1 60/6/1
f 63/6/1 61/6/1 60/6/1
f 63/2/1 60/2/1 59/2/1
f 64/2/1 62/2/1 61/2/1
f 64/6/1 61/6/1 63/6/1
f 65/2/1 63/2/1 59/2/1
f 65/2/1 64/2/1 63/2/1
f 66/2/1 62/2/1 64/2/1
f 66/2/1 64/2/1 65/2/1
f 72/5/1 68/5/1 67/5/1
f 73/5/1 68/5/1 72/5/1
f 74/5/1 70/5/1 69/5/1
f 75/5/1 70/5/1 74/5/1
f 77/2/1 72/2/1 71/2/1
f 78/2/1 72/2/1 77/2/1
f 79/2/1 76/2/1 75/2/1
f 80/2/1 76/2/1 79/2/1
f 85/2/1 82/2/1 81/2/1
f 86/2/1 84/2/1 83/2/1
f 87/2/1 85/2/1 81/2/1
f 88/2/1 85/2/1 87/2/1
f 89/2/1 84/2/1 86/2/1
f 90/2/1 84/2/1 89/2/1
f 91/2/2 92/2/2 94/2/2
f 94/2/2 92/2/2 95/2/2
f 93/2/2 94/2/2 98/2/2
f 95/2/2 96/2/2 98/2/2
f 94/2/2 95/2/2 98/2/2
f 98/2/2 96/2/2 99/2/2
f 97/2/2 98/2/2 101/2/2
f 99/2/2 100/2/2 101/2/2
f 98/2/2 99/2/2 101/2/2
f 101/2/2 100/2/2 102/2/2
f 103/2/2 104/2/2 107/2/2
f 107/2/2 104/2/2 108/2/2
f 105/2/2 106/2/2 109/2/2
f 109/2/2 106/2/2 110/2/2
f 111/5/2 112/5/2 115/5/2
f 113/5/2 114/5/2 116/5/2
f 115/5/2 112/5/2 117/5/2
f 117/5/2 112/5/2 118/5/2
f 113/5/2 116/5/2 119/5/2
f 119/5/2 116/5/2 120/5/2
f 121/2/2 122/2/2 125/2/2
f 123/2/2 124/2/2 126/2/2
f 121/2/2 125/2/2 127/2/2
f 127/2/2 125/2/2 128/2/2
f 126/2/2 124/2/2 129/2/2
f 129/2/2 124/2/2 130/2/2
f 131/5/2 132/5/2 136/5/2
f 136/5/2 132/5/2 137/5/2
f 133/5/2 134/5/2 138/5/2
f 138/5/2 134/5/2 139/5/2
f 135/2/2 136/2/2 141/2/2
f 141/2/2 136/2/2 142/2/2
f 139/2/2 140/2/2 143/2/2
f 143/2/2 140/2/2 144/2/2
f 145/2/2 146/2/2 149/2/2
f 147/2/2 148/2/2 152/2/2
f 145/2/2 149/2/2 153/2/2
f 149/2/2 150/2/2 153/2/2
f 153/2/2 150/2/2 154/2/2
f 151/2/2 152/2/2 155/2/2
f 152/2/2 148/2/2 155/2/2
f 155/2/2 148/2/2 156/2/2
f 150/6/2 151/6/2 157/6/2
f 154/2/2 150/2/2 157/2/2
f 151/2/2 155/2/2 158/2/2
f 157/6/2 151/6/2 158/6/2
f 154/2/2 157/2/2 159/2/2
f 157/2/2 158/2/2 159/2/2
f 158/2/2 155/2/2 160/2/2
f 159/2/2 158/2/2 160/2/2
f 161/2/2 162/2/2 163/2/2
f 163/2/2 162/2/2 164/2/2
f 164/2/2 162/2/2 165/2/2
f 165/2/2 162/2/2 166/2/2
f 163/1/2 164/1/2 167/1/2
f 164/2/2 165/2/2 168/2/2
f 167/1/2 164/1/2 168/1/2
f 165/1/2 166/1/2 169/1/2
f 168/2/2 165/2/2 169/2/2
f 169/1/2 166/1/2 170/1/2
f 171/4/2 172/4/2 173/4/2
f 173/4/2 172/4/2 174/4/2
f 177/2/3 176/2/3 175/2/3
f 178/2/3 176/2/3 177/2/3
f 180/2/3 176/2/3 178/2/3
f 181/2/3 180/2/3 179/2/3
f 182/2/3 176/2/3 180/2/3
f 182/2/3 180/2/3 181/2/3
f 187/2/3 184/2/3 183/2/3
f 188/2/3 184/2/3 187/2/3
f 189/2/3 186/2/3 185/2/3
f 190/2/3 186/2/3 189/2/3
f 195/4/3 192/4/3 191/4/3
f 196/4/3 192/4/3 195/4/3
f 197/2/3 194/2/3 193/2/3
f 198/2/3 194/2/3 197/2/3
f 199/2/3 194/2/3 198/2/3
f 201/2/3 196/2/3 195/2/3
f 201/2/3 197/2/3 196/2/3
f 201/2/3 198/2/3 197/2/3
f 202/2/3 198/2/3 201/2/3
f 203/5/3 201/5/3 200/5/3
f 204/5/3 201/5/3 203/5/3
f 206/5/3 203/5/3 200/5/3
f 206/3/3 204/3/3 203/3/3
f 207/5/3 205/5/3 204/5/3
f 207/3/3 204/3/3 206/3/3
f 208/5/3 206/5/3 200/5/3
f 208/5/3 207/5/3 206/5/3
f 209/5/3 207/5/3 208/5/3
f 210/5/3 205/5/3 207/5/3
f 210/5/3 207/5/3 209/5/3
f 212/2/3 198/2/3 202/2/3
f 213/2/3 198/2/3 212/2/3
f 215/2/3 213/2/3 212/2/3
f 215/2/3 214/2/3 213/2/3
f 215/2/3 212/2/3 211/2/3
f 216/2/3 214/2/3 215/2/3
f 218/2/3 215/2/3 211/2/3
f 219/2/3 215/2/3 218/2/3
f 220/5/3 218/5/3 217/5/3
f 221/5/3 218/5/3 220/5/3
f 222/5/3 220/5/3 217/5/3
f 222/3/3 221/3/3 220/3/3
f 223/3/3 221/3/3 222/3/3
f 224/2/3 215/2/3 219/2/3
f 225/6/3 216/6/3 215/6/3
f 225/2/3 215/2/3 224/2/3
f 226/6/3 216/6/3 225/6/3
f 227/2/3 214/2/3 216/2/3
f 227/6/3 216/6/3 226/6/3
f 228/5/3 223/5/3 222/5/3
f 228/5/3 222/5/3 217/5/3
f 229/5/3 223/5/3 228/5/3
f 230/2/3 224/2/3 219/2/3
f 231/2/3 224/2/3 230/2/3
f 233/2/3 227/2/3 226/2/3
f 234/2/3 214/2/3 227/2/3
f 234/2/3 227/2/3 233/2/3
f 235/2/3 232/2/3 231/2/3
f 235/2/3 231/2/3 230/2/3
f 235/2/3 230/2/3 229/2/3
f 236/2/3 232/2/3 235/2/3
f 237/2/3 235/2/3 229/2/3
f 238/2/3 235/2/3 237/2/3
f 239/1/3 236/1/3 235/1/3
f 239/2/3 235/2/3 238/2/3
f 240/1/3 236/1/3 239/1/3
f 241/4/3 238/4/3 237/4/3
f 242/4/3 238/4/3 241/4/3
f 245/2/3 244/2/3 243/2/3
f 246/2/3 244/2/3 245/2/3
f 249/4/3 248/4/3 247/4/3
f 250/4/3 248/4/3 249/4/3
f 255/5/3 254/5/3 253/5/3
f 256/5/3 254/5/3 255/5/3
f 257/2/3 252/2/3 251/2/3
f 258/2/3 252/2/3 257/2/3
f 261/5/3 260/5/3 259/5/3
f 262/5/3 260/5/3 261/5/3
f 265/2/3 264/2/3 263/2/3
f 266/2/3 264/2/3 265/2/3
f 267/2/3 264/2/3 266/2/3
f 270/2/3 269/2/3 268/2/3
f 271/2/3 269/2/3 270/2/3
f 272/2/4 273/2/4 274/2/4
f 274/2/4 273/2/4 275/2/4
f 278/5/4 279/5/4 280/5/4
f 280/5/4 279/5/4 281/5/4
f 278/5/4 280/5/4 282/5/4
f 280/3/4 281/3/4 282/3/4
f 282/3/4 281/3/4 283/3/4
f 278/5/4 282/5/4 284/5/4
f 282/5/4 283/5/4 284/5/4
f 284/5/4 283/5/4 285/5/4
f 276/2/4 277/2/4 286/2/4
f 286/2/4 277/2/4 287/2/4
f 287/2/4 277/2/4 288/2/4
f 289/5/4 290/5/4 291/5/4
f 291/5/4 290/5/4 292/5/4
f 289/5/4 291/5/4 293/5/4
f 291/3/4 292/3/4 293/3/4
f 293/3/4 292/3/4 294/3/4
f 289/5/4 293/5/4 295/5/4
f 293/5/4 294/5/4 295/5/4
f 295/5/4 294/5/4 296/5/4
f 297/2/4 298/2/4 299/2/4
f 299/2/4 298/2/4 300/2/4
f 301/4/4 302/4/4 303/4/4
f 303/4/4 302/4/4 304/4/4
f 305/2/4 306/2/4 307/2/4
f 307/2/4 306/2/4 308/2/4
f 309/4/4 310/4/4 313/4/4
f 313/4/4 310/4/4 314/4/4
f 311/2/4 312/2/4 315/2/4
f 315/2/4 312/2/4 316/2/4
f 316/2/4 312/2/4 317/2/4
f 313/2/4 314/2/4 319/2/4
f 314/2/4 315/2/4 319/2/4
f 315/2/4 316/2/4 319/2/4
f 319/2/4 316/2/4 320/2/4
f 318/5/4 319/5/4 321/5/4
f 321/5/4 319/5/4 322/5/4
f 318/5/4 321/5/4 324/5/4
f 321/3/4 322/3/4 324/3/4
f 322/5/4 323/5/4 325/5/4
f 324/3/4 322/3/4 325/3/4
f 318/5/4 324/5/4 326/5/4
f 324/5/4 325/5/4 326/5/4
f 326/5/4 325/5/4 327/5/4
f 325/5/4 323/5/4 328/5/4
f 327/5/4 325/5/4 328/5/4
f 320/2/4 316/2/4 330/2/4
f 330/2/4 316/2/4 331/2/4
f 330/2/4 331/2/4 333/2/4
f 331/2/4 332/2/4 333/2/4
f 329/2/4 330/2/4 333/2/4
f 333/2/4 332/2/4 334/2/4
f 329/2/4 333/2/4 336/2/4
f 336/2/4 333/2/4 337/2/4
f 335/5/4 336/5/4 338/5/4
f 338/5/4 336/5/4 339/5/4
f 335/5/4 338/5/4 340/5/4
f 338/3/4 339/3/4 340/3/4
f 340/3/4 339/3/4 341/3/4
f 337/2/4 333/2/4 342/2/4
f 333/6/4 334/6/4 343/6/4
f 342/2/4 333/2/4 343/2/4
f 343/6/4 334/6/4 344/6/4
f 334/2/4 332/2/4 345/2/4
f 344/6/4 334/6/4 345/6/4
f 340/5/4 341/5/4 346/5/4
f 335/5/4 340/5/4 346/5/4
f 346/5/4 341/5/4 347/5/4
f 337/2/4 342/2/4 348/2/4
f 348/2/4 342/2/4 349/2/4
f 344/2/4 345/2/4 351/2/4
f 345/2/4 332/2/4 352/2/4
f 351/2/4 345/2/4 352/2/4
f 349/2/4 350/2/4 353/2/4
f 348/2/4 349/2/4 353/2/4
f 347/2/4 348/2/4 353/2/4
f 353/2/4 350/2/4 354/2/4
f 347/2/4 353/2/4 355/2/4
f 355/2/4 353/2/4 356/2/4
f 353/1/4 354/1/4 357/1/4
f 356/2/4 353/2/4 357/2/4
f 357/1/4 354/1/4 358/1/4
f 355/4/4 356/4/4 359/4/4
f 359/4/4 356/4/4 360/4/4
f 361/2/4 362/2/4 363/2/4
f 363/2/4 362/2/4 364/2/4
f 364/2/4 362/2/4 366/2/4
f 365/2/4 366/2/4 367/2/4
f 366/2/4 362/2/4 368/2/4
f 367/2/4 366/2/4 368/2/4
f 369/2/4 370/2/4 373/2/4
f 373/2/4 370/2/4 374/2/4
f 371/2/4 372/2/4 375/2/4
f 375/2/4 372/2/4 376/2/4
f 381/5/5 378/5/5 377/5/5
f 382/5/5 378/5/5 381/5/5
f 383/5/5 380/5/5 379/5/5
f 384/5/5 380/5/5 383/5/5
f 389/5/5 386/5/5 385/5/5
f 390/5/5 386/5/5 389/5/5
f 391/5/5 388/5/5 387/5/5
f 392/5/5 388/5/5 391/5/5
f 395/2/5 394/2/5 393/2/5
f 396/2/5 394/2/5 395/2/5
f 399/2/5 398/2/5 397/2/5
f 400/2/5 398/2/5 399/2/5
f 407/2/5 402/2/5 401/2/5
f 408/2/5 402/2/5 407/2/5
f 411/2/5 404/2/5 403/2/5
f 412/2/5 404/2/5 411/2/5
f 413/2/5 404/2/5 412/2/5
f 414/2/5 404/2/5 413/2/5
f 417/2/5 407/2/5 406/2/5
f 420/2/5 410/2/5 409/2/5
f 420/2/5 411/2/5 410/2/5
f 421/2/5 411/2/5 420/2/5
f 424/2/5 415/2/5 414/2/5
f 425/4/5 406/4/5 405/4/5
f 426/4/5 406/4/5 425/4/5
f 427/2/5 424/2/5 423/2/5
f 427/4/5 406/4/5 426/4/5
f 427/2/5 419/2/5 418/2/5
f 427/2/5 423/2/5 422/2/5
f 427/2/5 418/2/5 417/2/5
f 427/2/5 417/2/5 406/2/5
f 427/2/5 422/2/5 421/2/5
f 427/2/5 421/2/5 420/2/5
f 427/2/5 420/2/5 419/2/5
f 429/2/5 427/2/5 426/2/5
f 430/2/5 424/2/5 427/2/5
f 430/2/5 427/2/5 429/2/5
f 431/2/5 424/2/5 430/2/5
f 432/2/5 424/2/5 431/2/5
f 433/2/5 424/2/5 432/2/5
f 434/2/5 415/2/5 424/2/5
f 434/2/5 424/2/5 433/2/5
f 435/4/5 429/4/5 428/4/5
f 435/4/5 430/4/5 429/4/5
f 436/2/5 431/2/5 430/2/5
f 436/4/5 430/4/5 435/4/5
f 437/2/5 431/2/5 436/2/5
f 439/2/5 433/2/5 432/2/5
f 440/2/5 433/2/5 439/2/5
f 441/2/5 433/2/5 440/2/5
f 444/2/5 415/2/5 434/2/5
f 445/4/5 416/4/5 415/4/5
f 445/2/5 415/2/5 444/2/5
f 446/4/5 416/4/5 445/4/5
f 447/2/5 438/2/5 437/2/5
f 448/2/5 438/2/5 447/2/5
f 449/2/5 443/2/5 442/2/5
f 449/2/5 444/2/5 443/2/5
f 449/2/5 442/2/5 441/2/5
f 450/2/5 444/2/5 449/2/5
f 453/2/5 452/2/5 451/2/5
f 454/2/5 452/2/5 453/2/5
f 457/2/5 456/2/5 455/2/5
f 458/2/5 456/2/5 457/2/5
f 463/2/5 460/2/5 459/2/5
f 464/2/5 460/2/5 463/2/5
f 465/2/5 462/2/5 461/2/5
f 466/2/5 462/2/5 465/2/5
f 469/2/5 468/2/5 467/2/5
f 470/2/5 468/2/5 469/2/5
f 473/2/5 472/2/5 471/2/5
f 474/2/5 472/2/5 473/2/5
f 475/2/6 476/2/6 479/2/6
f 479/2/6 476/2/6 480/2/6
f 477/4/6 478/4/6 483/4/6
f 483/4/6 478/4/6 484/4/6
f 477/4/6 483/4/6 487/4/6
f 487/4/6 483/4/6 488/4/6
f 485/2/6 486/2/6 491/2/6
f 491/2/6 486/2/6 492/2/6
f 489/4/6 490/4/6 493/4/6
f 489/4/6 493/4/6 495/4/6
f 493/4/6 494/4/6 495/4/6
f 495/4/6 494/4/6 496/4/6
f 481/4/6 482/4/6 499/4/6
f 499/4/6 482/4/6 500/4/6
f 497/2/6 498/2/6 501/2/6
f 501/2/6 498/2/6 502/2/6
f 503/2/6 504/2/6 505/2/6
f 505/2/6 504/2/6 506/2/6
f 507/2/6 508/2/6 509/2/6
f 509/2/6 508/2/6 510/2/6
f 511/2/6 512/2/6 513/2/6
f 513/2/6 512/2/6 514/2/6
f 515/2/6 516/2/6 517/2/6
f 517/2/6 516/2/6 518/2/6
f 519/2/6 520/2/6 522/2/6
f 520/1/6 521/1/6 523/1/6
f 522/2/6 520/2/6 523/2/6
f 523/1/6 521/1/6 524/1/6
f 522/2/6 523/2/6 525/2/6
f 523/2/6 524/2/6 525/2/6
f 525/2/6 524/2/6 526/2/6
f 526/2/6 524/2/6 527/2/6
f 525/2/6 526/2/6 528/2/6
f 526/1/6 527/1/6 529/1/6
f 528/2/6 526/2/6 529/2/6
f 529/1/6 527/1/6 530/1/6
f 531/2/6 532/2/6 535/2/6
f 535/2/6 532/2/6 536/2/6
f 533/2/6 534/2/6 537/2/6
f 537/2/6 534/2/6 538/2/6
f 539/2/6 540/2/6 541/2/6
f 541/2/6 540/2/6 542/2/6
f 543/2/6 544/2/6 545/2/6
f 545/2/6 544/2/6 546/2/6
f 547/2/6 548/2/6 549/2/6
f 549/2/6 548/2/6 550/2/6
f 551/2/6 552/2/6 553/2/6
f 553/2/6 552/2/6 554/2/6
